<svg width="582" height="106" viewBox="0 0 582 106" fill="none" xmlns="http://www.w3.org/2000/svg">
<path d="M20.3369 89.0144C20.3369 89.0144 39.4908 11.1589 90.3114 16.5744C137.897 21.6479 149.099 89.0144 149.099 89.0144H20.3369Z" fill="#89BA2A"/>
<path d="M198.081 89.0144C198.081 89.0144 181.991 32.5075 156.096 31.7807C130.201 31.0538 107.812 73.0813 105.005 89.0144H198.081Z" fill="#178B3B"/>
<path d="M105.019 89.0144H149.113C149.113 89.0144 144.98 64.2312 131.113 43.5809C117.047 57.0627 106.857 78.5966 105.033 89.0144H105.019Z" fill="#146E38"/>
<path d="M219.7 73.9935H218.204L214.228 84.1975H216.565L217.306 82.0455H221.139L221.881 84.1975H224.232L220.242 73.9935H219.686H219.7ZM217.89 80.4066L219.244 76.4732L220.598 80.4066H217.89Z" fill="white"/>
<path d="M230.446 80.1073C229.99 79.9221 229.491 79.7795 228.907 79.6655C228.622 79.6085 228.394 79.5515 228.208 79.4945C228.023 79.4375 227.866 79.3662 227.752 79.2807C227.638 79.1952 227.553 79.124 227.496 79.0385C227.439 78.953 227.424 78.8389 227.424 78.7249C227.424 78.5682 227.467 78.4257 227.567 78.2974C227.652 78.1691 227.795 78.0694 227.966 77.9839C228.137 77.9126 228.337 77.8698 228.579 77.8698C228.864 77.8698 229.092 77.9126 229.277 78.0124C229.448 78.0979 229.591 78.2261 229.676 78.3829C229.762 78.5397 229.804 78.7107 229.804 78.9102H231.914C231.914 78.4399 231.785 78.0266 231.515 77.6561C231.244 77.2855 230.873 77.0005 230.374 76.7867C229.876 76.573 229.291 76.4732 228.593 76.4732C228.094 76.4732 227.652 76.5302 227.268 76.6585C226.883 76.7867 226.541 76.9578 226.27 77.1715C225.999 77.3853 225.786 77.6418 225.643 77.9126C225.5 78.1834 225.429 78.4969 225.429 78.8104C225.429 79.124 225.5 79.4233 225.643 79.6655C225.786 79.9221 225.985 80.1358 226.227 80.3068C226.484 80.4921 226.783 80.6489 227.125 80.7771C227.467 80.9054 227.838 81.0052 228.251 81.0907C228.693 81.1762 229.035 81.2617 229.277 81.3614C229.519 81.4612 229.676 81.5752 229.762 81.6892C229.847 81.8032 229.89 81.9315 229.89 82.0883C229.89 82.245 229.847 82.4018 229.747 82.5158C229.648 82.6441 229.519 82.7438 229.334 82.8151C229.149 82.8864 228.921 82.9291 228.65 82.9291C228.394 82.9291 228.165 82.8864 227.937 82.8151C227.724 82.7438 227.538 82.6156 227.396 82.4446C227.253 82.2735 227.182 82.0598 227.168 81.7747H225.158C225.158 82.188 225.287 82.5871 225.557 82.9719C225.814 83.3566 226.199 83.6844 226.712 83.941C227.225 84.1975 227.852 84.3257 228.593 84.3257C229.106 84.3257 229.562 84.2687 229.975 84.1547C230.389 84.0407 230.731 83.8839 231.03 83.6702C231.329 83.4564 231.543 83.2141 231.7 82.9434C231.857 82.6583 231.928 82.359 231.928 82.017C231.928 81.5182 231.8 81.1192 231.529 80.8199C231.258 80.5064 230.902 80.2641 230.46 80.0931L230.446 80.1073Z" fill="white"/>
<path d="M238.612 80.1073C238.156 79.9221 237.657 79.7795 237.073 79.6655C236.788 79.6085 236.56 79.5515 236.374 79.4945C236.189 79.4375 236.032 79.3662 235.918 79.2807C235.804 79.1952 235.719 79.124 235.662 79.0385C235.605 78.953 235.59 78.8389 235.59 78.7249C235.59 78.5682 235.633 78.4257 235.733 78.2974C235.818 78.1691 235.961 78.0694 236.132 77.9839C236.303 77.9126 236.503 77.8698 236.745 77.8698C237.03 77.8698 237.258 77.9126 237.443 78.0124C237.614 78.0979 237.757 78.2261 237.842 78.3829C237.928 78.5397 237.97 78.7107 237.97 78.9102H240.08C240.08 78.4399 239.951 78.0266 239.681 77.6561C239.41 77.2855 239.039 77.0005 238.54 76.7867C238.042 76.573 237.457 76.4732 236.759 76.4732C236.26 76.4732 235.818 76.5302 235.434 76.6585C235.049 76.7867 234.707 76.9578 234.436 77.1715C234.165 77.3853 233.952 77.6418 233.809 77.9126C233.666 78.1834 233.595 78.4969 233.595 78.8104C233.595 79.124 233.666 79.4233 233.809 79.6655C233.952 79.9221 234.151 80.1358 234.393 80.3068C234.65 80.4921 234.949 80.6489 235.291 80.7771C235.633 80.9054 236.004 81.0052 236.417 81.0907C236.859 81.1762 237.201 81.2617 237.443 81.3614C237.685 81.4612 237.842 81.5752 237.928 81.6892C238.013 81.8032 238.056 81.9315 238.056 82.0883C238.056 82.245 238.013 82.4018 237.913 82.5158C237.814 82.6441 237.685 82.7438 237.5 82.8151C237.315 82.8864 237.087 82.9291 236.816 82.9291C236.56 82.9291 236.332 82.8864 236.103 82.8151C235.89 82.7438 235.704 82.6156 235.562 82.4446C235.419 82.2735 235.348 82.0598 235.334 81.7747H233.324C233.324 82.188 233.453 82.5871 233.724 82.9719C233.98 83.3566 234.365 83.6844 234.878 83.941C235.391 84.1975 236.018 84.3257 236.759 84.3257C237.272 84.3257 237.728 84.2687 238.141 84.1547C238.555 84.0407 238.897 83.8839 239.196 83.6702C239.495 83.4564 239.709 83.2141 239.866 82.9434C240.023 82.6583 240.094 82.359 240.094 82.017C240.094 81.5182 239.966 81.1192 239.695 80.8199C239.424 80.5064 239.068 80.2641 238.626 80.0931L238.612 80.1073Z" fill="white"/>
<path d="M248.103 77.5848C247.775 77.2428 247.391 76.972 246.92 76.7725C246.45 76.5729 245.908 76.4874 245.31 76.4874C244.711 76.4874 244.17 76.5872 243.714 76.7725C243.258 76.9577 242.859 77.2428 242.545 77.5848C242.232 77.9268 241.989 78.3401 241.818 78.8104C241.647 79.2807 241.562 79.7938 241.562 80.3496V80.4921C241.562 81.0479 241.647 81.5609 241.818 82.0312C241.989 82.5015 242.232 82.9148 242.545 83.2569C242.859 83.5989 243.258 83.8697 243.728 84.0692C244.198 84.2687 244.726 84.3542 245.324 84.3542C245.923 84.3542 246.464 84.2545 246.92 84.0692C247.376 83.8839 247.775 83.6131 248.103 83.2569C248.417 82.9148 248.673 82.5015 248.83 82.0312C249.001 81.5609 249.087 81.0479 249.087 80.4921V80.3496C249.087 79.7938 249.001 79.2807 248.83 78.8104C248.659 78.3401 248.417 77.9268 248.103 77.5848ZM246.963 80.4921C246.963 80.8056 246.935 81.1049 246.878 81.3757C246.821 81.6464 246.721 81.8887 246.593 82.1025C246.464 82.3163 246.293 82.473 246.079 82.587C245.866 82.7011 245.623 82.7581 245.324 82.7581C245.025 82.7581 244.768 82.7011 244.555 82.587C244.341 82.473 244.17 82.302 244.042 82.1025C243.913 81.903 243.813 81.6464 243.756 81.3757C243.699 81.1049 243.671 80.8056 243.671 80.4921V80.3496C243.671 80.036 243.699 79.751 243.756 79.4802C243.813 79.2095 243.913 78.9672 244.042 78.7534C244.17 78.5396 244.341 78.3686 244.555 78.2546C244.768 78.1263 245.011 78.0693 245.31 78.0693C245.609 78.0693 245.866 78.1263 246.079 78.2546C246.293 78.3829 246.464 78.5396 246.593 78.7534C246.721 78.9672 246.821 79.2095 246.878 79.4802C246.935 79.751 246.963 80.0503 246.963 80.3496V80.4921Z" fill="white"/>
<path d="M252.678 79.466C252.721 79.1952 252.792 78.953 252.906 78.7392C253.02 78.5254 253.162 78.3544 253.362 78.2404C253.561 78.1264 253.804 78.0551 254.117 78.0551C254.402 78.0551 254.645 78.1121 254.844 78.2404C255.044 78.3686 255.2 78.5254 255.3 78.7392C255.4 78.9387 255.457 79.1667 255.471 79.4233H257.466C257.466 78.8247 257.324 78.2974 257.039 77.8556C256.754 77.4138 256.369 77.0718 255.884 76.8295C255.4 76.5872 254.816 76.4732 254.174 76.4732C253.561 76.4732 253.034 76.573 252.578 76.7725C252.122 76.972 251.737 77.2428 251.438 77.5848C251.139 77.9268 250.911 78.3401 250.754 78.8104C250.597 79.2807 250.526 79.7795 250.526 80.3211V80.5206C250.526 81.0479 250.597 81.5467 250.754 82.017C250.911 82.4873 251.139 82.8864 251.438 83.2426C251.737 83.5989 252.122 83.8697 252.578 84.055C253.034 84.2545 253.576 84.3542 254.189 84.3542C254.801 84.3542 255.357 84.2402 255.842 83.998C256.326 83.7557 256.725 83.4422 257.025 83.0289C257.324 82.6156 257.466 82.1453 257.466 81.6037H255.471C255.471 81.846 255.4 82.0455 255.286 82.2308C255.172 82.4018 255.015 82.5443 254.816 82.6441C254.616 82.7438 254.388 82.7866 254.132 82.7866C253.818 82.7866 253.561 82.7296 253.362 82.6013C253.162 82.4731 253.02 82.3163 252.906 82.1025C252.792 81.8888 252.721 81.6465 252.678 81.3757C252.635 81.1049 252.621 80.8199 252.621 80.5206V80.3211C252.621 80.0218 252.635 79.751 252.678 79.4803V79.466Z" fill="white"/>
<path d="M260.274 73.6229C259.918 73.6229 259.618 73.7227 259.404 73.908C259.191 74.0932 259.077 74.3497 259.077 74.6348C259.077 74.9198 259.191 75.1763 259.404 75.3616C259.618 75.5469 259.903 75.6466 260.274 75.6466C260.644 75.6466 260.915 75.5469 261.143 75.3616C261.357 75.1763 261.471 74.9341 261.471 74.6348C261.471 74.3355 261.357 74.0932 261.143 73.908C260.929 73.7227 260.644 73.6229 260.274 73.6229Z" fill="white"/>
<path d="M261.343 76.6157H259.219V84.1975H261.343V76.6157Z" fill="white"/>
<path d="M269.951 82.3733V79.124C269.951 78.5397 269.808 78.0409 269.537 77.6561C269.267 77.257 268.882 76.972 268.397 76.7725C267.913 76.573 267.371 76.4732 266.758 76.4732C266.245 76.4732 265.775 76.5302 265.362 76.6585C264.948 76.7867 264.592 76.9578 264.293 77.1858C263.994 77.4138 263.766 77.6703 263.609 77.9554C263.452 78.2404 263.381 78.5539 263.381 78.8674H265.49C265.49 78.6822 265.533 78.5112 265.632 78.3686C265.732 78.2261 265.86 78.1121 266.031 78.0409C266.203 77.9696 266.402 77.9269 266.644 77.9269C266.915 77.9269 267.143 77.9839 267.314 78.0694C267.485 78.1691 267.613 78.2974 267.699 78.4827C267.784 78.6537 267.827 78.8674 267.827 79.1097V79.58H266.887C266.274 79.58 265.746 79.637 265.29 79.751C264.834 79.865 264.45 80.0218 264.136 80.2356C263.837 80.4494 263.595 80.7059 263.438 81.0194C263.281 81.3329 263.21 81.675 263.21 82.074C263.21 82.5158 263.324 82.9006 263.566 83.2426C263.808 83.5847 264.122 83.8554 264.535 84.055C264.948 84.2545 265.404 84.34 265.903 84.34C266.302 84.34 266.644 84.283 266.929 84.169C267.214 84.055 267.471 83.9125 267.67 83.7272C267.77 83.6417 267.827 83.5419 267.913 83.4564C267.97 83.7557 268.041 84.0122 268.141 84.2117H270.278V84.0977C270.179 83.8982 270.093 83.6702 270.05 83.4137C270.008 83.1571 269.965 82.8151 269.965 82.3876L269.951 82.3733ZM267.186 82.6583C266.958 82.7866 266.673 82.8436 266.359 82.8436C266.145 82.8436 265.96 82.8008 265.803 82.7296C265.647 82.6583 265.533 82.5443 265.447 82.4018C265.362 82.2593 265.319 82.1025 265.319 81.9315C265.319 81.7605 265.347 81.6037 265.404 81.4612C265.461 81.3187 265.561 81.1904 265.689 81.0764C265.818 80.9624 265.989 80.8769 266.203 80.8199C266.402 80.7629 266.644 80.7344 266.929 80.7344H267.813V82.0598C267.813 82.0598 267.756 82.1595 267.727 82.2165C267.599 82.3875 267.414 82.5443 267.186 82.6583Z" fill="white"/>
<path d="M275.737 82.7153C275.637 82.7153 275.509 82.7296 275.38 82.7296C275.195 82.7296 275.038 82.7011 274.924 82.6583C274.796 82.6156 274.711 82.5301 274.654 82.4161C274.597 82.302 274.568 82.131 274.568 81.9172V78.0409H275.936V76.6157H274.568V74.7488H272.459V76.6157H271.319V78.0409H272.459V82.1168C272.459 82.6441 272.559 83.0859 272.744 83.4136C272.929 83.7414 273.2 83.9837 273.542 84.1262C273.884 84.2687 274.297 84.34 274.753 84.34C275.01 84.34 275.238 84.3257 275.452 84.2972C275.666 84.2687 275.851 84.226 276.036 84.169V82.6868C275.951 82.6868 275.865 82.7153 275.765 82.7296L275.737 82.7153Z" fill="white"/>
<path d="M279.798 76.6157H277.675V84.1975H279.798V76.6157Z" fill="white"/>
<path d="M278.73 73.6229C278.373 73.6229 278.074 73.7227 277.86 73.908C277.646 74.0932 277.532 74.3497 277.532 74.6348C277.532 74.9198 277.646 75.1763 277.86 75.3616C278.074 75.5469 278.359 75.6466 278.73 75.6466C279.1 75.6466 279.371 75.5469 279.599 75.3616C279.813 75.1763 279.927 74.9341 279.927 74.6348C279.927 74.3355 279.813 74.0932 279.599 73.908C279.385 73.7227 279.1 73.6229 278.73 73.6229Z" fill="white"/>
<path d="M288.207 77.5848C287.879 77.2428 287.494 76.972 287.024 76.7725C286.554 76.5729 286.012 76.4874 285.413 76.4874C284.815 76.4874 284.273 76.5872 283.817 76.7725C283.361 76.9577 282.962 77.2428 282.649 77.5848C282.335 77.9268 282.093 78.3401 281.922 78.8104C281.751 79.2807 281.665 79.7938 281.665 80.3496V80.4921C281.665 81.0479 281.751 81.5609 281.922 82.0312C282.093 82.5015 282.335 82.9148 282.649 83.2569C282.962 83.5989 283.361 83.8697 283.832 84.0692C284.302 84.2687 284.829 84.3542 285.428 84.3542C286.026 84.3542 286.568 84.2545 287.024 84.0692C287.48 83.8839 287.879 83.6131 288.207 83.2569C288.52 82.9148 288.777 82.5015 288.934 82.0312C289.105 81.5609 289.19 81.0479 289.19 80.4921V80.3496C289.19 79.7938 289.105 79.2807 288.934 78.8104C288.763 78.3401 288.52 77.9268 288.207 77.5848ZM287.067 80.4921C287.067 80.8056 287.038 81.1049 286.981 81.3757C286.924 81.6464 286.824 81.8887 286.696 82.1025C286.568 82.3163 286.397 82.473 286.183 82.587C285.969 82.7011 285.727 82.7581 285.428 82.7581C285.128 82.7581 284.872 82.7011 284.658 82.587C284.444 82.473 284.273 82.302 284.145 82.1025C284.017 81.903 283.917 81.6464 283.86 81.3757C283.803 81.1049 283.774 80.8056 283.774 80.4921V80.3496C283.774 80.036 283.803 79.751 283.86 79.4802C283.917 79.2095 284.017 78.9672 284.145 78.7534C284.273 78.5396 284.444 78.3686 284.658 78.2546C284.872 78.1263 285.114 78.0693 285.413 78.0693C285.713 78.0693 285.969 78.1263 286.183 78.2546C286.397 78.3829 286.568 78.5396 286.696 78.7534C286.824 78.9672 286.924 79.2095 286.981 79.4802C287.038 79.751 287.067 80.0503 287.067 80.3496V80.4921Z" fill="white"/>
<path d="M297.057 77.1287C296.829 76.9007 296.572 76.744 296.259 76.6442C295.945 76.5444 295.617 76.4874 295.233 76.4874C294.762 76.4874 294.335 76.5729 293.964 76.744C293.58 76.915 293.266 77.1572 292.981 77.485C292.967 77.4993 292.952 77.5278 292.938 77.542L292.867 76.6299H290.886V84.2117H292.995V78.8959C292.995 78.8959 293.052 78.7392 293.095 78.6821C293.223 78.4969 293.394 78.3401 293.608 78.2404C293.822 78.1406 294.064 78.0836 294.349 78.0836C294.634 78.0836 294.848 78.1263 295.047 78.1976C295.233 78.2689 295.375 78.4114 295.475 78.5966C295.575 78.7819 295.617 79.0384 295.617 79.3805V84.226H297.741V79.3947C297.741 78.8674 297.684 78.4114 297.556 78.0408C297.442 77.6703 297.271 77.371 297.043 77.143L297.057 77.1287Z" fill="white"/>
<path d="M310.197 77.5848C309.869 77.2428 309.484 76.972 309.014 76.7725C308.544 76.5729 308.002 76.4874 307.403 76.4874C306.805 76.4874 306.263 76.5872 305.807 76.7725C305.351 76.9577 304.952 77.2428 304.639 77.5848C304.325 77.9268 304.083 78.3401 303.912 78.8104C303.741 79.2807 303.655 79.7938 303.655 80.3496V80.4921C303.655 81.0479 303.741 81.5609 303.912 82.0312C304.083 82.5015 304.325 82.9148 304.639 83.2569C304.952 83.5989 305.351 83.8697 305.821 84.0692C306.292 84.2687 306.819 84.3542 307.418 84.3542C308.016 84.3542 308.558 84.2545 309.014 84.0692C309.47 83.8839 309.869 83.6131 310.197 83.2569C310.51 82.9148 310.767 82.5015 310.923 82.0312C311.095 81.5609 311.18 81.0479 311.18 80.4921V80.3496C311.18 79.7938 311.095 79.2807 310.923 78.8104C310.752 78.3401 310.51 77.9268 310.197 77.5848ZM309.057 80.4921C309.057 80.8056 309.028 81.1049 308.971 81.3757C308.914 81.6464 308.814 81.8887 308.686 82.1025C308.558 82.3163 308.387 82.473 308.173 82.587C307.959 82.7011 307.717 82.7581 307.418 82.7581C307.118 82.7581 306.862 82.7011 306.648 82.587C306.434 82.473 306.263 82.302 306.135 82.1025C306.007 81.903 305.907 81.6464 305.85 81.3757C305.793 81.1049 305.764 80.8056 305.764 80.4921V80.3496C305.764 80.036 305.793 79.751 305.85 79.4802C305.907 79.2095 306.007 78.9672 306.135 78.7534C306.263 78.5396 306.434 78.3686 306.648 78.2546C306.862 78.1263 307.104 78.0693 307.403 78.0693C307.703 78.0693 307.959 78.1263 308.173 78.2546C308.387 78.3829 308.558 78.5396 308.686 78.7534C308.814 78.9672 308.914 79.2095 308.971 79.4802C309.028 79.751 309.057 80.0503 309.057 80.3496V80.4921Z" fill="white"/>
<path d="M316.396 73.2951C315.798 73.2951 315.284 73.3949 314.857 73.5944C314.429 73.7939 314.087 74.0932 313.845 74.4923C313.603 74.8913 313.489 75.3758 313.489 75.9459V76.6157H312.306V78.0409H313.489V84.1975H315.612V78.0409H317.194V76.6157H315.612V75.9459C315.612 75.7179 315.655 75.5184 315.755 75.3616C315.855 75.2048 315.983 75.0766 316.168 75.0053C316.353 74.934 316.567 74.877 316.824 74.877C316.966 74.877 317.08 74.877 317.18 74.877C317.28 74.877 317.379 74.9055 317.479 74.9198L317.508 73.3949C317.337 73.3521 317.166 73.3236 316.98 73.2951C316.795 73.2666 316.61 73.2524 316.41 73.2524L316.396 73.2951Z" fill="white"/>
<path d="M325.26 73.9935H322.025V75.6466H325.26V84.2117H327.455V75.6466H330.733V73.9935H327.455H325.26Z" fill="white"/>
<path d="M337.616 82.3733V79.124C337.616 78.5397 337.474 78.0409 337.203 77.6561C336.932 77.257 336.548 76.972 336.063 76.7725C335.578 76.573 335.037 76.4732 334.424 76.4732C333.911 76.4732 333.441 76.5302 333.027 76.6585C332.614 76.7867 332.258 76.9578 331.959 77.1858C331.659 77.4138 331.431 77.6703 331.275 77.9554C331.118 78.2404 331.046 78.5539 331.046 78.8674H333.156C333.156 78.6822 333.198 78.5112 333.298 78.3686C333.398 78.2261 333.526 78.1121 333.697 78.0409C333.868 77.9696 334.068 77.9269 334.31 77.9269C334.581 77.9269 334.809 77.9839 334.98 78.0694C335.151 78.1691 335.279 78.2974 335.365 78.4827C335.45 78.6537 335.493 78.8674 335.493 79.1097V79.58H334.552C333.94 79.58 333.412 79.637 332.956 79.751C332.5 79.865 332.115 80.0218 331.802 80.2356C331.503 80.4494 331.26 80.7059 331.104 81.0194C330.947 81.3329 330.875 81.675 330.875 82.074C330.875 82.5158 330.989 82.9006 331.232 83.2426C331.474 83.5847 331.788 83.8554 332.201 84.055C332.614 84.2545 333.07 84.34 333.569 84.34C333.968 84.34 334.31 84.283 334.595 84.169C334.88 84.055 335.137 83.9125 335.336 83.7272C335.436 83.6417 335.493 83.5419 335.578 83.4564C335.635 83.7557 335.707 84.0122 335.806 84.2117H337.944V84.0977C337.844 83.8982 337.759 83.6702 337.716 83.4137C337.673 83.1571 337.631 82.8151 337.631 82.3876L337.616 82.3733ZM334.852 82.6583C334.624 82.7866 334.339 82.8436 334.025 82.8436C333.811 82.8436 333.626 82.8008 333.469 82.7296C333.312 82.6583 333.198 82.5443 333.113 82.4018C333.027 82.2593 332.985 82.1025 332.985 81.9315C332.985 81.7605 333.013 81.6037 333.07 81.4612C333.127 81.3187 333.227 81.1904 333.355 81.0764C333.484 80.9624 333.655 80.8769 333.868 80.8199C334.068 80.7629 334.31 80.7344 334.595 80.7344H335.479V82.0598C335.479 82.0598 335.422 82.1595 335.393 82.2165C335.265 82.3875 335.08 82.5443 334.852 82.6583Z" fill="white"/>
<path d="M341.934 76.6157H339.811V84.1975H341.934V76.6157Z" fill="white"/>
<path d="M340.866 73.6229C340.51 73.6229 340.21 73.7227 339.996 73.908C339.783 74.0932 339.669 74.3497 339.669 74.6348C339.669 74.9198 339.783 75.1763 339.996 75.3616C340.21 75.5469 340.495 75.6466 340.866 75.6466C341.236 75.6466 341.507 75.5469 341.735 75.3616C341.949 75.1763 342.063 74.9341 342.063 74.6348C342.063 74.3355 341.949 74.0932 341.735 73.908C341.521 73.7227 341.236 73.6229 340.866 73.6229Z" fill="white"/>
<path d="M351.013 81.5467L349.559 76.6157H349.388H348.234H348.034L346.595 81.561L345.555 76.6157H343.517L345.526 84.2117H346.182H346.837H347.293L348.804 79.3092L350.3 84.2117H350.771H351.44H352.082L354.091 76.6157H352.039L351.013 81.5467Z" fill="white"/>
<path d="M362.015 82.3733V79.124C362.015 78.5397 361.872 78.0409 361.602 77.6561C361.331 77.257 360.946 76.972 360.461 76.7725C359.977 76.573 359.435 76.4732 358.823 76.4732C358.309 76.4732 357.839 76.5302 357.426 76.6585C357.013 76.7867 356.656 76.9578 356.357 77.1858C356.058 77.4138 355.83 77.6703 355.673 77.9554C355.516 78.2404 355.445 78.5539 355.445 78.8674H357.554C357.554 78.6822 357.597 78.5112 357.697 78.3686C357.796 78.2261 357.925 78.1121 358.096 78.0409C358.267 77.9696 358.466 77.9269 358.709 77.9269C358.979 77.9269 359.207 77.9839 359.378 78.0694C359.549 78.1691 359.678 78.2974 359.763 78.4827C359.849 78.6537 359.891 78.8674 359.891 79.1097V79.58H358.951C358.338 79.58 357.811 79.637 357.355 79.751C356.899 79.865 356.514 80.0218 356.2 80.2356C355.901 80.4494 355.659 80.7059 355.502 81.0194C355.345 81.3329 355.274 81.675 355.274 82.074C355.274 82.5158 355.388 82.9006 355.63 83.2426C355.872 83.5847 356.186 83.8554 356.599 84.055C357.013 84.2545 357.469 84.34 357.967 84.34C358.366 84.34 358.709 84.283 358.994 84.169C359.279 84.055 359.535 83.9125 359.735 83.7272C359.834 83.6417 359.891 83.5419 359.977 83.4564C360.034 83.7557 360.105 84.0122 360.205 84.2117H362.343V84.0977C362.243 83.8982 362.157 83.6702 362.115 83.4137C362.072 83.1571 362.029 82.8151 362.029 82.3876L362.015 82.3733ZM359.25 82.6583C359.022 82.7866 358.737 82.8436 358.424 82.8436C358.21 82.8436 358.024 82.8008 357.868 82.7296C357.711 82.6583 357.597 82.5443 357.511 82.4018C357.426 82.2593 357.383 82.1025 357.383 81.9315C357.383 81.7605 357.412 81.6037 357.469 81.4612C357.526 81.3187 357.625 81.1904 357.754 81.0764C357.882 80.9624 358.053 80.8769 358.267 80.8199C358.466 80.7629 358.709 80.7344 358.994 80.7344H359.877V82.0598C359.877 82.0598 359.82 82.1595 359.792 82.2165C359.663 82.3875 359.478 82.5443 359.25 82.6583Z" fill="white"/>
<path d="M370.224 77.1287C369.996 76.9007 369.739 76.744 369.426 76.6442C369.112 76.5444 368.784 76.4874 368.399 76.4874C367.929 76.4874 367.502 76.5729 367.131 76.744C366.746 76.915 366.433 77.1572 366.148 77.485C366.133 77.4993 366.119 77.5278 366.105 77.542L366.034 76.6299H364.053V84.2117H366.162V78.8959C366.162 78.8959 366.219 78.7392 366.262 78.6821C366.39 78.4969 366.561 78.3401 366.775 78.2404C366.989 78.1406 367.231 78.0836 367.516 78.0836C367.801 78.0836 368.015 78.1263 368.214 78.1976C368.399 78.2689 368.542 78.4114 368.642 78.5966C368.741 78.7819 368.784 79.0384 368.784 79.3805V84.226H370.908V79.3947C370.908 78.8674 370.851 78.4114 370.722 78.0408C370.608 77.6703 370.437 77.371 370.209 77.143L370.224 77.1287Z" fill="white"/>
<path d="M378.889 73.9935H377.292V84.2117H379.487V79.9933H383.748V78.3544H379.487V75.6466H384.261V73.9935H379.487H378.889Z" fill="white"/>
<path d="M391.9 77.5848C391.572 77.2428 391.187 76.972 390.717 76.7725C390.247 76.5729 389.705 76.4874 389.107 76.4874C388.508 76.4874 387.967 76.5872 387.511 76.7725C387.055 76.9577 386.656 77.2428 386.342 77.5848C386.028 77.9268 385.786 78.3401 385.615 78.8104C385.444 79.2807 385.359 79.7938 385.359 80.3496V80.4921C385.359 81.0479 385.444 81.5609 385.615 82.0312C385.786 82.5015 386.028 82.9148 386.342 83.2569C386.656 83.5989 387.055 83.8697 387.525 84.0692C387.995 84.2687 388.522 84.3542 389.121 84.3542C389.72 84.3542 390.261 84.2545 390.717 84.0692C391.173 83.8839 391.572 83.6131 391.9 83.2569C392.214 82.9148 392.47 82.5015 392.627 82.0312C392.798 81.5609 392.883 81.0479 392.883 80.4921V80.3496C392.883 79.7938 392.798 79.2807 392.627 78.8104C392.456 78.3401 392.214 77.9268 391.9 77.5848ZM390.76 80.4921C390.76 80.8056 390.731 81.1049 390.674 81.3757C390.617 81.6464 390.518 81.8887 390.389 82.1025C390.261 82.3163 390.09 82.473 389.876 82.587C389.663 82.7011 389.42 82.7581 389.121 82.7581C388.822 82.7581 388.565 82.7011 388.351 82.587C388.138 82.473 387.967 82.302 387.838 82.1025C387.71 81.903 387.61 81.6464 387.553 81.3757C387.496 81.1049 387.468 80.8056 387.468 80.4921V80.3496C387.468 80.036 387.496 79.751 387.553 79.4802C387.61 79.2095 387.71 78.9672 387.838 78.7534C387.967 78.5396 388.138 78.3686 388.351 78.2546C388.565 78.1263 388.807 78.0693 389.107 78.0693C389.406 78.0693 389.663 78.1263 389.876 78.2546C390.09 78.3829 390.261 78.5396 390.389 78.7534C390.518 78.9672 390.617 79.2095 390.674 79.4802C390.731 79.751 390.76 80.0503 390.76 80.3496V80.4921Z" fill="white"/>
<path d="M398.484 76.4732C398.114 76.4732 397.786 76.5587 397.487 76.7297C397.187 76.9007 396.959 77.143 396.76 77.4423C396.731 77.485 396.717 77.5278 396.703 77.5705L396.632 76.6157H394.636V84.1975H396.746V79.2379C396.817 79.0812 396.902 78.9244 397.016 78.7962C397.159 78.6536 397.344 78.5539 397.558 78.4826C397.772 78.4114 398.028 78.3686 398.328 78.3686C398.442 78.3686 398.57 78.3686 398.727 78.3829C398.883 78.3971 398.997 78.4114 399.097 78.4256L399.14 76.5587C399.069 76.5302 398.955 76.5017 398.841 76.4874C398.712 76.4732 398.598 76.4589 398.484 76.4589V76.4732Z" fill="white"/>
<path d="M406.465 77.4993C406.166 77.1715 405.809 76.915 405.368 76.744C404.926 76.573 404.427 76.4732 403.871 76.4732C403.315 76.4732 402.774 76.573 402.318 76.7582C401.862 76.9435 401.463 77.2143 401.149 77.5706C400.836 77.9269 400.579 78.3401 400.408 78.8104C400.237 79.2807 400.152 79.808 400.152 80.3923V80.6774C400.152 81.1762 400.237 81.6607 400.422 82.1025C400.608 82.5443 400.864 82.9434 401.206 83.2711C401.548 83.5989 401.962 83.8697 402.446 84.055C402.931 84.2402 403.486 84.34 404.099 84.34C404.612 84.34 405.068 84.2687 405.467 84.1405C405.866 84.0122 406.208 83.8412 406.494 83.6274C406.779 83.4137 407.007 83.1999 407.178 82.9719L406.151 81.903C405.909 82.188 405.624 82.4161 405.296 82.5443C404.969 82.6868 404.612 82.7581 404.228 82.7581C403.914 82.7581 403.643 82.7011 403.401 82.6013C403.159 82.5016 402.959 82.359 402.788 82.1738C402.617 81.9885 402.489 81.7605 402.403 81.504C402.346 81.3614 402.346 81.1904 402.332 81.0337H407.363V80.1928C407.363 79.637 407.292 79.124 407.135 78.6679C406.978 78.2119 406.764 77.8271 406.465 77.4993ZM405.282 79.694H402.332C402.332 79.6228 402.332 79.5373 402.361 79.466C402.418 79.181 402.517 78.9387 402.646 78.7249C402.774 78.5112 402.931 78.3544 403.13 78.2404C403.33 78.1264 403.572 78.0694 403.843 78.0694C404.171 78.0694 404.441 78.1406 404.655 78.2689C404.869 78.3971 405.026 78.5824 405.125 78.7962C405.225 79.0242 405.282 79.2665 405.282 79.5515V79.7083V79.694Z" fill="white"/>
<path d="M413.89 80.1073C413.434 79.9221 412.935 79.7795 412.351 79.6655C412.066 79.6085 411.838 79.5515 411.653 79.4945C411.467 79.4375 411.311 79.3662 411.197 79.2807C411.083 79.1952 410.997 79.124 410.94 79.0385C410.883 78.953 410.869 78.8389 410.869 78.7249C410.869 78.5682 410.912 78.4257 411.011 78.2974C411.097 78.1691 411.239 78.0694 411.41 77.9839C411.581 77.9126 411.781 77.8698 412.023 77.8698C412.308 77.8698 412.536 77.9126 412.721 78.0124C412.892 78.0979 413.035 78.2261 413.121 78.3829C413.206 78.5397 413.249 78.7107 413.249 78.9102H415.358C415.358 78.4399 415.23 78.0266 414.959 77.6561C414.688 77.2855 414.318 77.0005 413.819 76.7867C413.32 76.573 412.736 76.4732 412.037 76.4732C411.539 76.4732 411.097 76.5302 410.712 76.6585C410.327 76.7867 409.985 76.9578 409.714 77.1715C409.444 77.3853 409.23 77.6418 409.087 77.9126C408.945 78.1834 408.874 78.4969 408.874 78.8104C408.874 79.124 408.945 79.4233 409.087 79.6655C409.23 79.9221 409.429 80.1358 409.672 80.3068C409.928 80.4921 410.227 80.6489 410.569 80.7771C410.912 80.9054 411.282 81.0052 411.695 81.0907C412.137 81.1762 412.479 81.2617 412.721 81.3614C412.964 81.4612 413.121 81.5752 413.206 81.6892C413.292 81.8032 413.334 81.9315 413.334 82.0883C413.334 82.245 413.292 82.4018 413.192 82.5158C413.092 82.6441 412.964 82.7438 412.778 82.8151C412.593 82.8864 412.365 82.9291 412.094 82.9291C411.838 82.9291 411.61 82.8864 411.382 82.8151C411.168 82.7438 410.983 82.6156 410.84 82.4446C410.698 82.2735 410.626 82.0598 410.612 81.7747H408.603C408.603 82.188 408.731 82.5871 409.002 82.9719C409.258 83.3566 409.643 83.6844 410.156 83.941C410.669 84.1975 411.296 84.3257 412.037 84.3257C412.55 84.3257 413.006 84.2687 413.42 84.1547C413.833 84.0407 414.175 83.8839 414.474 83.6702C414.774 83.4564 414.987 83.2141 415.144 82.9434C415.301 82.6583 415.372 82.359 415.372 82.017C415.372 81.5182 415.244 81.1192 414.973 80.8199C414.702 80.5064 414.346 80.2641 413.904 80.0931L413.89 80.1073Z" fill="white"/>
<path d="M420.888 82.7153C420.788 82.7153 420.66 82.7296 420.531 82.7296C420.346 82.7296 420.189 82.7011 420.075 82.6583C419.947 82.6156 419.862 82.5301 419.805 82.4161C419.748 82.302 419.719 82.131 419.719 81.9172V78.0409H421.087V76.6157H419.719V74.7488H417.61V76.6157H416.47V78.0409H417.61V82.1168C417.61 82.6441 417.71 83.0859 417.895 83.4136C418.08 83.7414 418.351 83.9837 418.693 84.1262C419.035 84.2687 419.448 84.34 419.904 84.34C420.161 84.34 420.389 84.3257 420.603 84.2972C420.816 84.2687 421.002 84.226 421.187 84.169V82.6868C421.101 82.6868 421.016 82.7153 420.916 82.7296L420.888 82.7153Z" fill="white"/>
<path d="M433.871 79.4517C434.227 79.1952 434.498 78.8674 434.683 78.4826C434.883 78.0979 434.968 77.6276 434.968 77.0718C434.968 76.4019 434.811 75.8461 434.484 75.3758C434.17 74.9198 433.714 74.5777 433.13 74.3355C432.545 74.0932 431.833 73.9792 431.02 73.9792H427.03V84.1832H429.225V80.4066H430.978L433.001 84.1832H435.353V84.0835L433.03 79.8793C433.329 79.751 433.614 79.6085 433.842 79.4232L433.871 79.4517ZM429.239 75.6466H431.02C431.405 75.6466 431.733 75.7036 431.99 75.8319C432.246 75.9601 432.446 76.1454 432.574 76.3734C432.702 76.6157 432.759 76.9007 432.759 77.2285C432.759 77.542 432.688 77.8128 432.56 78.0408C432.431 78.2689 432.232 78.4541 431.99 78.5824C431.733 78.7107 431.419 78.7819 431.035 78.7819H429.239V75.6466Z" fill="white"/>
<path d="M442.992 77.4993C442.692 77.1715 442.336 76.915 441.894 76.744C441.452 76.573 440.954 76.4732 440.398 76.4732C439.842 76.4732 439.3 76.573 438.844 76.7582C438.388 76.9435 437.989 77.2143 437.676 77.5706C437.362 77.9269 437.106 78.3401 436.935 78.8104C436.764 79.2807 436.678 79.808 436.678 80.3923V80.6774C436.678 81.1762 436.764 81.6607 436.949 82.1025C437.134 82.5443 437.391 82.9434 437.733 83.2711C438.075 83.5989 438.488 83.8697 438.973 84.055C439.457 84.2402 440.013 84.34 440.626 84.34C441.139 84.34 441.595 84.2687 441.994 84.1405C442.393 84.0122 442.735 83.8412 443.02 83.6274C443.305 83.4137 443.533 83.1999 443.704 82.9719L442.678 81.903C442.436 82.188 442.151 82.4161 441.823 82.5443C441.495 82.6868 441.139 82.7581 440.754 82.7581C440.441 82.7581 440.17 82.7011 439.928 82.6013C439.685 82.5016 439.486 82.359 439.315 82.1738C439.144 81.9885 439.015 81.7605 438.93 81.504C438.873 81.3614 438.873 81.1904 438.859 81.0337H443.889V80.1928C443.889 79.637 443.818 79.124 443.661 78.6679C443.505 78.2119 443.291 77.8271 442.992 77.4993ZM441.823 79.694H438.873C438.873 79.6228 438.873 79.5373 438.901 79.466C438.958 79.181 439.058 78.9387 439.186 78.7249C439.315 78.5112 439.472 78.3544 439.671 78.2404C439.871 78.1264 440.113 78.0694 440.384 78.0694C440.711 78.0694 440.982 78.1406 441.196 78.2689C441.41 78.3971 441.566 78.5824 441.666 78.7962C441.766 79.0242 441.823 79.2665 441.823 79.5515V79.7083V79.694Z" fill="white"/>
<path d="M450.431 80.1073C449.975 79.9221 449.476 79.7795 448.892 79.6655C448.607 79.6085 448.379 79.5515 448.193 79.4945C448.008 79.4375 447.851 79.3662 447.737 79.2807C447.623 79.1952 447.538 79.124 447.481 79.0385C447.424 78.953 447.41 78.8389 447.41 78.7249C447.41 78.5682 447.452 78.4257 447.552 78.2974C447.638 78.1691 447.78 78.0694 447.951 77.9839C448.122 77.9126 448.322 77.8698 448.564 77.8698C448.849 77.8698 449.077 77.9126 449.262 78.0124C449.433 78.0979 449.576 78.2261 449.661 78.3829C449.747 78.5397 449.789 78.7107 449.789 78.9102H451.899C451.899 78.4399 451.77 78.0266 451.5 77.6561C451.229 77.2855 450.858 77.0005 450.36 76.7867C449.861 76.573 449.262 76.4732 448.578 76.4732C448.079 76.4732 447.638 76.5302 447.253 76.6585C446.868 76.7867 446.526 76.9578 446.255 77.1715C445.984 77.3853 445.771 77.6418 445.628 77.9126C445.486 78.1834 445.414 78.4969 445.414 78.8104C445.414 79.124 445.486 79.4233 445.628 79.6655C445.771 79.9221 445.97 80.1358 446.212 80.3068C446.469 80.4921 446.768 80.6489 447.11 80.7771C447.452 80.9054 447.823 81.0052 448.236 81.0907C448.678 81.1762 449.02 81.2617 449.262 81.3614C449.504 81.4612 449.661 81.5752 449.747 81.6892C449.832 81.8032 449.875 81.9315 449.875 82.0883C449.875 82.245 449.832 82.4018 449.733 82.5158C449.633 82.6441 449.504 82.7438 449.319 82.8151C449.134 82.8864 448.906 82.9291 448.635 82.9291C448.379 82.9291 448.151 82.8864 447.923 82.8151C447.709 82.7438 447.524 82.6156 447.381 82.4446C447.239 82.2735 447.167 82.0598 447.153 81.7747H445.144C445.144 82.188 445.272 82.5871 445.543 82.9719C445.799 83.3566 446.184 83.6844 446.697 83.941C447.21 84.1975 447.837 84.3257 448.578 84.3257C449.091 84.3257 449.547 84.2687 449.961 84.1547C450.374 84.0407 450.716 83.8839 451.015 83.6702C451.314 83.4564 451.528 83.2141 451.685 82.9434C451.842 82.6726 451.913 82.359 451.913 82.017C451.913 81.5182 451.785 81.1192 451.514 80.8199C451.243 80.5064 450.887 80.2641 450.445 80.0931L450.431 80.1073Z" fill="white"/>
<path d="M457.428 82.7153C457.328 82.7153 457.2 82.7296 457.072 82.7296C456.887 82.7296 456.73 82.7011 456.616 82.6583C456.488 82.6156 456.402 82.5301 456.345 82.4161C456.288 82.302 456.26 82.131 456.26 81.9172V78.0409H457.628V76.6157H456.26V74.7488H454.15V76.6157H453.01V78.0409H454.15V82.1168C454.15 82.6441 454.25 83.0859 454.435 83.4136C454.621 83.7414 454.891 83.9837 455.233 84.1262C455.576 84.2687 455.989 84.34 456.445 84.34C456.701 84.34 456.929 84.3257 457.143 84.2972C457.357 84.2687 457.542 84.226 457.727 84.169V82.6868C457.642 82.6868 457.556 82.7153 457.457 82.7296L457.428 82.7153Z" fill="white"/>
<path d="M465.266 77.5848C464.939 77.2428 464.554 76.972 464.084 76.7725C463.613 76.5729 463.072 76.4874 462.473 76.4874C461.875 76.4874 461.333 76.5872 460.877 76.7725C460.407 76.972 460.022 77.2428 459.708 77.5848C459.395 77.9268 459.153 78.3401 458.982 78.8104C458.811 79.2807 458.725 79.7938 458.725 80.3496V80.4921C458.725 81.0479 458.811 81.5609 458.982 82.0312C459.153 82.5015 459.395 82.9148 459.708 83.2569C460.022 83.5989 460.421 83.8697 460.891 84.0692C461.362 84.2545 461.889 84.3542 462.502 84.3542C463.115 84.3542 463.642 84.2545 464.098 84.0692C464.568 83.8839 464.953 83.6131 465.281 83.2569C465.594 82.9148 465.851 82.5015 466.008 82.0312C466.179 81.5609 466.264 81.0479 466.264 80.4921V80.3496C466.264 79.7938 466.179 79.2807 466.008 78.8104C465.837 78.3401 465.594 77.9268 465.281 77.5848H465.266ZM464.112 80.4921C464.112 80.8056 464.084 81.1049 464.027 81.3757C463.97 81.6464 463.87 81.8887 463.742 82.1025C463.613 82.3163 463.442 82.473 463.229 82.587C463.015 82.7011 462.773 82.7581 462.473 82.7581C462.174 82.7581 461.917 82.7011 461.704 82.587C461.49 82.473 461.319 82.302 461.191 82.1025C461.062 81.903 460.963 81.6464 460.906 81.3757C460.849 81.1049 460.82 80.8056 460.82 80.4921V80.3496C460.82 80.036 460.849 79.751 460.906 79.4802C460.963 79.2095 461.062 78.9672 461.191 78.7534C461.319 78.5396 461.49 78.3686 461.689 78.2546C461.889 78.1406 462.145 78.0693 462.445 78.0693C462.744 78.0693 463.001 78.1263 463.214 78.2546C463.428 78.3829 463.599 78.5396 463.727 78.7534C463.856 78.9672 463.955 79.2095 464.012 79.4802C464.069 79.751 464.098 80.0503 464.098 80.3496V80.4921H464.112Z" fill="white"/>
<path d="M471.837 76.4732C471.466 76.4732 471.138 76.5587 470.853 76.7297C470.568 76.9007 470.326 77.143 470.126 77.4423C470.098 77.485 470.084 77.5278 470.069 77.5705L469.998 76.6157H468.003V84.1975H470.112V79.2379C470.183 79.0812 470.269 78.9244 470.383 78.7962C470.525 78.6536 470.711 78.5539 470.924 78.4826C471.138 78.4114 471.395 78.3686 471.694 78.3686C471.808 78.3686 471.936 78.3686 472.093 78.3829C472.25 78.3971 472.364 78.4114 472.464 78.4256L472.506 76.5587C472.435 76.5302 472.321 76.5017 472.207 76.4874C472.079 76.4732 471.965 76.4589 471.851 76.4589L471.837 76.4732Z" fill="white"/>
<path d="M480.117 82.3733V79.124C480.117 78.5397 479.974 78.0409 479.703 77.6561C479.432 77.257 479.048 76.972 478.577 76.7725C478.093 76.573 477.551 76.4732 476.938 76.4732C476.425 76.4732 475.955 76.5302 475.542 76.6585C475.129 76.7867 474.772 76.9578 474.473 77.1858C474.174 77.4138 473.946 77.6703 473.789 77.9554C473.632 78.2404 473.561 78.5539 473.561 78.8674H475.67C475.67 78.6822 475.713 78.5112 475.813 78.3686C475.912 78.2261 476.041 78.1121 476.212 78.0409C476.383 77.9696 476.582 77.9269 476.824 77.9269C477.095 77.9269 477.323 77.9839 477.494 78.0694C477.665 78.1549 477.794 78.2974 477.879 78.4827C477.965 78.6537 478.007 78.8674 478.007 79.1097V79.58H477.067C476.454 79.58 475.927 79.637 475.471 79.751C475.015 79.865 474.63 80.0218 474.316 80.2356C474.003 80.4494 473.775 80.7059 473.618 81.0194C473.461 81.3329 473.39 81.675 473.39 82.074C473.39 82.5158 473.504 82.9006 473.746 83.2426C473.988 83.5847 474.302 83.8554 474.715 84.055C475.129 84.2545 475.585 84.34 476.083 84.34C476.482 84.34 476.824 84.283 477.109 84.169C477.395 84.055 477.651 83.9125 477.851 83.7272C477.95 83.6417 478.007 83.5419 478.093 83.4564C478.15 83.7557 478.221 84.0122 478.321 84.2117H480.459V84.0977C480.359 83.8982 480.273 83.6702 480.231 83.4137C480.188 83.1571 480.145 82.8151 480.145 82.3876L480.117 82.3733ZM477.352 82.6583C477.124 82.7866 476.839 82.8436 476.525 82.8436C476.311 82.8436 476.126 82.8008 475.969 82.7296C475.813 82.6583 475.699 82.5443 475.613 82.4018C475.528 82.2593 475.485 82.1025 475.485 81.9315C475.485 81.7605 475.513 81.6037 475.57 81.4612C475.627 81.3187 475.727 81.1904 475.855 81.0764C475.984 80.9624 476.155 80.8769 476.354 80.8199C476.554 80.7629 476.796 80.7344 477.081 80.7344H477.965V82.0598C477.965 82.0598 477.908 82.1595 477.879 82.2165C477.751 82.3875 477.566 82.5443 477.338 82.6583H477.352Z" fill="white"/>
<path d="M485.903 82.7153C485.803 82.7153 485.675 82.7296 485.546 82.7296C485.361 82.7296 485.204 82.7011 485.09 82.6583C484.962 82.6156 484.876 82.5301 484.819 82.4161C484.762 82.302 484.734 82.131 484.734 81.9172V78.0409H486.102V76.6157H484.734V74.7488H482.625V76.6157H481.485V78.0409H482.625V82.1168C482.625 82.6441 482.724 83.0859 482.91 83.4136C483.095 83.7414 483.366 83.9837 483.708 84.1262C484.05 84.2687 484.463 84.34 484.919 84.34C485.176 84.34 485.404 84.3257 485.618 84.2972C485.831 84.2687 486.017 84.226 486.202 84.169V82.6868C486.116 82.6868 486.031 82.7153 485.931 82.7296L485.903 82.7153Z" fill="white"/>
<path d="M489.964 76.6157H487.841V84.1975H489.964V76.6157Z" fill="white"/>
<path d="M488.895 73.6229C488.539 73.6229 488.24 73.7227 488.026 73.908C487.812 74.0932 487.698 74.3497 487.698 74.6348C487.698 74.9198 487.812 75.1763 488.026 75.3616C488.24 75.5469 488.525 75.6466 488.895 75.6466C489.266 75.6466 489.537 75.5469 489.765 75.3616C489.978 75.1763 490.093 74.9341 490.093 74.6348C490.093 74.3355 489.978 74.0932 489.765 73.908C489.551 73.7227 489.266 73.6229 488.895 73.6229Z" fill="white"/>
<path d="M498.358 77.5848C498.031 77.2428 497.646 76.972 497.175 76.7725C496.705 76.5729 496.164 76.4874 495.565 76.4874C494.966 76.4874 494.425 76.5872 493.969 76.7725C493.499 76.972 493.114 77.2428 492.8 77.5848C492.487 77.9268 492.244 78.3401 492.073 78.8104C491.902 79.2807 491.817 79.7938 491.817 80.3496V80.4921C491.817 81.0479 491.902 81.5609 492.073 82.0312C492.244 82.5015 492.487 82.9148 492.8 83.2569C493.114 83.5989 493.513 83.8697 493.983 84.0692C494.453 84.2545 494.981 84.3542 495.594 84.3542C496.206 84.3542 496.734 84.2545 497.19 84.0692C497.66 83.8839 498.045 83.6131 498.373 83.2569C498.686 82.9148 498.943 82.5015 499.099 82.0312C499.27 81.5609 499.356 81.0479 499.356 80.4921V80.3496C499.356 79.7938 499.27 79.2807 499.099 78.8104C498.928 78.3401 498.686 77.9268 498.373 77.5848H498.358ZM497.218 80.4921C497.218 80.8056 497.19 81.1049 497.133 81.3757C497.076 81.6464 496.976 81.8887 496.848 82.1025C496.719 82.3163 496.548 82.473 496.335 82.587C496.121 82.7011 495.879 82.7581 495.579 82.7581C495.28 82.7581 495.023 82.7011 494.81 82.587C494.596 82.473 494.425 82.302 494.297 82.1025C494.168 81.903 494.069 81.6464 494.012 81.3757C493.955 81.1049 493.926 80.8056 493.926 80.4921V80.3496C493.926 80.036 493.955 79.751 494.012 79.4802C494.069 79.2095 494.168 78.9672 494.297 78.7534C494.425 78.5396 494.596 78.3686 494.795 78.2546C494.995 78.1406 495.251 78.0693 495.551 78.0693C495.85 78.0693 496.107 78.1263 496.32 78.2546C496.534 78.3829 496.705 78.5396 496.833 78.7534C496.962 78.9672 497.061 79.2095 497.118 79.4802C497.175 79.751 497.204 80.0503 497.204 80.3496V80.4921H497.218Z" fill="white"/>
<path d="M507.208 77.1287C506.98 76.9007 506.724 76.744 506.41 76.6442C506.097 76.5444 505.769 76.4874 505.384 76.4874C504.914 76.4874 504.486 76.5729 504.116 76.744C503.731 76.915 503.418 77.1572 503.133 77.485C503.118 77.4993 503.104 77.5278 503.09 77.542L503.019 76.6299H501.038V84.2117H503.147V78.8959C503.147 78.8959 503.204 78.7392 503.247 78.6821C503.375 78.4969 503.546 78.3401 503.76 78.2404C503.973 78.1406 504.216 78.0836 504.501 78.0836C504.786 78.0836 504.999 78.1263 505.199 78.1976C505.384 78.2689 505.527 78.4114 505.627 78.5966C505.726 78.7819 505.769 79.0384 505.769 79.3805V84.226H507.893V79.3947C507.893 78.8674 507.836 78.4114 507.707 78.0408C507.593 77.6703 507.422 77.371 507.194 77.143L507.208 77.1287Z" fill="white"/>
<path d="M516.215 77.7558C516.344 77.086 516.529 76.5017 516.743 76.0029C516.957 75.5041 517.199 75.0908 517.47 74.7345C517.74 74.3925 518.011 74.1217 518.296 73.9222L517.897 72.8533C517.484 73.0243 517.056 73.3236 516.629 73.7227C516.201 74.1217 515.816 74.6348 515.446 75.2476C515.09 75.8604 514.805 76.5587 514.577 77.371C514.363 78.1691 514.249 79.067 514.249 80.0503V80.2071C514.249 81.1904 514.363 82.0883 514.577 82.9006C514.79 83.7129 515.09 84.4112 515.446 85.0241C515.802 85.6369 516.201 86.1357 516.629 86.5347C517.056 86.9338 517.484 87.2188 517.897 87.404L518.296 86.3637C518.011 86.1642 517.74 85.8934 517.47 85.5371C517.199 85.1951 516.957 84.7675 516.743 84.2687C516.529 83.7699 516.344 83.1856 516.215 82.5016C516.087 81.8317 516.016 81.0622 516.016 80.2071V80.0218C516.016 79.1667 516.087 78.3971 516.215 77.7273V77.7558Z" fill="white"/>
<path d="M524.538 73.9935H523.056L519.08 84.1975H521.417L522.158 82.0455H525.992L526.733 84.1975H529.084L525.094 73.9935H524.538ZM522.728 80.4066L524.082 76.4732L525.436 80.4066H522.728Z" fill="white"/>
<path d="M532.206 73.9935H528.97V75.6466H532.206V84.2117H534.4V75.6466H537.692V73.9935H534.4H532.206Z" fill="white"/>
<path d="M540.984 73.9935H539.388V84.2117H541.597V79.9933H545.844V78.3544H541.597V75.6466H546.357V73.9935H541.597H540.984Z" fill="white"/>
<path d="M554.922 79.4517C555.279 79.1952 555.549 78.8674 555.735 78.4826C555.934 78.0979 556.02 77.6276 556.02 77.0718C556.02 76.4019 555.863 75.8461 555.535 75.3758C555.207 74.9055 554.765 74.5777 554.181 74.3355C553.597 74.0932 552.884 73.9792 552.072 73.9792H548.082V84.1832H550.276V80.4066H552.029L554.053 84.1832H556.404V84.0835L554.081 79.8793C554.381 79.751 554.666 79.6085 554.894 79.4232L554.922 79.4517ZM550.291 75.6466H552.072C552.457 75.6466 552.785 75.7036 553.055 75.8319C553.312 75.9601 553.511 76.1454 553.64 76.3734C553.768 76.6157 553.825 76.9007 553.825 77.2285C553.825 77.542 553.754 77.8128 553.625 78.0408C553.497 78.2689 553.298 78.4541 553.055 78.5824C552.799 78.7107 552.485 78.7819 552.1 78.7819H550.305V75.6466H550.291Z" fill="white"/>
<path d="M561.335 77.428C561.107 76.63 560.808 75.9174 560.438 75.3046C560.067 74.6918 559.668 74.1787 559.226 73.7654C558.784 73.3521 558.357 73.0529 557.915 72.8818L557.502 73.9222C557.773 74.1217 558.043 74.3925 558.3 74.7345C558.571 75.0766 558.813 75.5041 559.027 76.0029C559.255 76.5017 559.426 77.1003 559.554 77.7701C559.682 78.4399 559.754 79.2095 559.754 80.0646V80.2498C559.754 81.1049 559.682 81.8745 559.554 82.5443C559.426 83.2141 559.255 83.8127 559.027 84.3115C558.813 84.8103 558.571 85.2378 558.3 85.5799C558.029 85.9219 557.758 86.1927 557.488 86.3922L557.901 87.4325C558.343 87.2615 558.77 86.9623 559.212 86.549C559.654 86.1357 560.053 85.6226 560.423 85.0098C560.794 84.3827 561.093 83.6844 561.321 82.8721C561.549 82.0598 561.663 81.1904 561.663 80.2356V80.0788C561.663 79.124 561.549 78.2404 561.321 77.4423L561.335 77.428Z" fill="white"/>
<path d="M219.23 35.6571V42.0275H247.362V35.6571H219.23ZM242.374 39.5477H223.933V38.0798H242.374V39.5477Z" fill="white"/>
<path d="M235.576 58.7017H248.16V55.7659H245.595L248.417 53.4999C247.761 52.9726 246.963 52.3883 246.022 51.7327C245.267 51.2197 244.483 50.7209 243.657 50.2221H246.707V47.5428H219.258V46.3742H246.835V49.5238H251.652V43.2389H214.641V49.5238H219.159V50.2363H224.959C224.446 50.4786 223.961 50.7066 223.519 50.8919C222.864 51.1627 222.379 51.3622 222.066 51.5047C221.239 51.7612 220.484 51.918 219.8 52.0035C219.999 52.4168 220.199 52.9726 220.398 53.6424C220.598 54.3123 220.755 54.8111 220.869 55.1531C221.125 55.0961 221.467 55.0391 221.909 54.9678C222.351 54.8966 223.006 54.8396 223.89 54.7825C224.774 54.7255 226.028 54.6828 227.667 54.64C228.45 54.6258 229.363 54.5973 230.374 54.5688V55.7944H218.674V58.7302H230.374V60.1126H214.498V63.4617H251.88V60.1126H235.533V58.7302L235.576 58.7017ZM227.553 51.8468C228.536 51.3622 229.519 50.8207 230.474 50.2363H237.258L237.03 50.4074C237.785 50.7779 238.569 51.2054 239.367 51.6757L227.538 51.8468H227.553ZM235.576 54.412C237.757 54.355 240.322 54.298 243.258 54.241C244.013 54.7968 244.654 55.3099 245.196 55.7802H235.576V54.4263V54.412Z" fill="white"/>
<path d="M235.576 24.883H230.417V27.0207H214.242V30.1703H230.417V31.5099H217.662V34.4457H248.687V31.5099H235.576V30.1703H252.179V27.0207H235.576V24.883Z" fill="white"/>
<path d="M285.342 36.0704H277.19V38.3791H285.342V36.0704Z" fill="white"/>
<path d="M261.343 52.7303C260.701 54.3978 260.074 55.9512 259.447 57.4191C258.82 58.887 258.236 60.1838 257.694 61.2955L262.298 63.8037C262.868 62.4356 263.423 60.9962 263.979 59.4855C264.535 57.9749 265.077 56.45 265.618 54.8966C266.16 53.3432 266.658 51.8325 267.115 50.3504L263.067 47.7566C262.554 49.4098 261.984 51.0629 261.343 52.7161V52.7303Z" fill="white"/>
<path d="M261.271 42.8398C261.984 43.3529 262.54 43.8374 262.939 44.2792L265.932 40.4171C265.476 40.0038 264.891 39.5477 264.164 39.0774C263.438 38.6071 262.682 38.1368 261.884 37.6665C261.086 37.2105 260.317 36.8115 259.575 36.4694L256.754 39.9468C257.495 40.3031 258.25 40.7448 259.034 41.2722C259.818 41.7852 260.559 42.3125 261.271 42.8256V42.8398Z" fill="white"/>
<path d="M262.084 31.9517C262.768 32.4933 263.309 33.0064 263.708 33.4766L266.787 29.7C266.359 29.2582 265.803 28.7737 265.105 28.2606C264.407 27.7476 263.666 27.2345 262.868 26.75C262.07 26.2654 261.3 25.8379 260.559 25.4673L257.652 28.8592C258.364 29.2725 259.105 29.757 259.889 30.2986C260.673 30.8401 261.4 31.3817 262.084 31.9375V31.9517Z" fill="white"/>
<path d="M286.197 29.1157H281.865L283.589 28.7024C283.418 28.2891 283.19 27.7475 282.891 27.1062C282.592 26.4649 282.307 25.9091 282.022 25.4246L278.729 26.0944C278.986 26.6217 279.243 27.206 279.513 27.8616C279.713 28.3319 279.855 28.7451 279.998 29.1157H275.95V31.7094H286.197V29.1157Z" fill="white"/>
<path d="M272.972 40.5596C273.257 41.2864 273.499 42.0703 273.713 42.9111C273.927 43.7519 274.069 44.4645 274.155 45.0488L276.292 44.1652C276.235 43.5809 276.079 42.8826 275.822 42.0703C275.566 41.2579 275.281 40.5169 274.967 39.847L272.958 40.5596H272.972Z" fill="white"/>
<path d="M285.342 32.8068H277.19V35.1156H285.342V32.8068Z" fill="white"/>
<path d="M269.637 41.1867C269.865 41.9705 270.036 42.8113 270.164 43.7234C270.293 44.6355 270.364 45.4051 270.392 46.0464L272.744 45.2911C272.715 44.6783 272.616 43.9229 272.473 43.0536C272.33 42.1843 272.117 41.3577 271.86 40.6024L269.637 41.1867Z" fill="white"/>
<path d="M294.948 34.232L292.895 34.9445C293.081 35.2866 293.266 35.6429 293.437 36.0134L290.986 36.2842C291.513 35.7141 292.055 35.1156 292.568 34.4742C293.75 33.0206 294.762 31.567 295.617 30.1133L292.924 28.9447C292.639 29.586 292.297 30.2131 291.926 30.8401L289.96 30.9256C290.245 30.5409 290.544 30.1561 290.829 29.7285C291.598 28.5884 292.211 27.4483 292.667 26.3367L289.888 25.3248C289.689 26.0802 289.418 26.8355 289.062 27.5908C288.705 28.3461 288.363 29.0017 288.036 29.5575C287.708 30.1133 287.466 30.4981 287.295 30.6834C287.067 30.9969 286.853 31.2534 286.639 31.4529C286.425 31.6667 286.211 31.7807 285.983 31.8092C286.154 32.0943 286.34 32.4505 286.539 32.8781C286.739 33.3056 286.867 33.6192 286.924 33.8187C287.152 33.7332 287.451 33.6619 287.822 33.6049C288.192 33.5479 288.762 33.4766 289.546 33.3911C289.774 33.3626 290.031 33.3484 290.316 33.3199C290.031 33.7189 289.746 34.1037 289.461 34.4457C288.876 35.1726 288.449 35.6714 288.164 35.9564C287.793 36.3697 287.451 36.7117 287.138 36.9682C286.824 37.2248 286.482 37.3673 286.112 37.4243C286.311 37.7093 286.511 38.0656 286.724 38.5074C286.938 38.9492 287.067 39.277 287.124 39.4765C287.38 39.3625 287.736 39.2627 288.207 39.163C288.677 39.0632 289.461 38.9349 290.572 38.7639C291.484 38.6214 292.753 38.4361 294.335 38.2081C294.506 38.7069 294.663 39.1772 294.748 39.562L296.886 38.6784C296.743 38.0941 296.487 37.3673 296.116 36.498C295.746 35.6286 295.347 34.859 294.919 34.1892L294.948 34.232Z" fill="white"/>
<path d="M265.718 31.8377C265.889 32.1228 266.074 32.479 266.274 32.9066C266.473 33.3341 266.616 33.6477 266.701 33.8472C266.901 33.7617 267.186 33.6904 267.57 33.6192C267.955 33.5479 268.54 33.4766 269.323 33.3911C269.551 33.3626 269.822 33.3484 270.121 33.3199C269.822 33.7332 269.523 34.118 269.238 34.4742C268.654 35.2011 268.226 35.6999 267.941 35.9849C267.57 36.3697 267.228 36.6975 266.915 36.9682C266.601 37.239 266.259 37.3958 265.889 37.4528C266.06 37.7378 266.245 38.0941 266.459 38.5217C266.673 38.9492 266.801 39.277 266.858 39.505C267.114 39.391 267.485 39.277 267.97 39.163C268.454 39.049 269.238 38.9064 270.335 38.7212C271.233 38.5644 272.516 38.3934 274.112 38.1939C274.269 38.6642 274.411 39.1202 274.497 39.4907L276.634 38.5644C276.492 37.9801 276.25 37.2675 275.893 36.4552C275.537 35.6286 275.166 34.8733 274.767 34.175L272.672 34.9303C272.858 35.2723 273.043 35.6286 273.228 35.9992L270.763 36.2557C271.29 35.6856 271.817 35.0871 272.345 34.4457C273.513 33.0064 274.525 31.567 275.38 30.1133L272.772 28.9447C272.473 29.5718 272.131 30.1846 271.775 30.7974L269.737 30.8829C270.022 30.4981 270.307 30.1133 270.592 29.6858C271.361 28.5457 271.988 27.4055 272.473 26.2939L269.694 25.3248C269.494 26.0517 269.224 26.7927 268.867 27.5481C268.511 28.3034 268.169 28.9732 267.841 29.5433C267.513 30.1133 267.271 30.4838 267.1 30.6549C266.872 30.9969 266.658 31.2534 266.459 31.4529C266.259 31.6525 266.017 31.7807 265.732 31.8235L265.718 31.8377Z" fill="white"/>
<path d="M277.147 45.8041H285.342V39.5192H277.147V45.8041ZM280.14 41.7282H282.278V43.5666H280.14V41.7282Z" fill="white"/>
<path d="M288.72 44.0939C289.033 43.0678 289.261 42.0702 289.404 41.1011L286.967 40.4741C286.824 41.2864 286.653 42.113 286.454 42.9396C286.254 43.7804 285.955 44.5357 285.556 45.2055C285.841 45.3766 286.197 45.6046 286.639 45.9181C287.081 46.2316 287.409 46.4882 287.637 46.7162C288.036 45.9894 288.392 45.12 288.705 44.0939H288.72Z" fill="white"/>
<path d="M269.167 41.2294L266.687 40.6024C266.573 41.4432 266.416 42.2698 266.202 43.0964C265.989 43.9229 265.689 44.664 265.29 45.3338C265.604 45.5048 265.974 45.7329 266.402 46.0464C266.829 46.3599 267.171 46.6165 267.428 46.8445C267.827 46.1462 268.169 45.2911 268.468 44.265C268.768 43.2389 268.996 42.227 269.167 41.2294Z" fill="white"/>
<path d="M290.686 55.2243H274.012C274.041 55.096 274.069 54.9963 274.112 54.868C274.197 54.526 274.269 54.2124 274.354 53.8847H293.423V46.8872H269.053V49.7375H288.691V51.0771H270.335C270.079 52.2457 269.78 53.4856 269.437 54.7825C269.095 56.0794 268.753 57.248 268.411 58.2884H290.088C290.017 58.5306 289.931 58.7586 289.86 58.9582C289.561 59.7135 289.247 60.2123 288.905 60.4688C288.677 60.6113 288.42 60.6968 288.135 60.7396C287.85 60.7823 287.494 60.7966 287.066 60.7966C286.525 60.7966 285.641 60.7823 284.401 60.7396C283.162 60.6968 281.907 60.6256 280.625 60.5116C280.995 61.0389 281.295 61.6517 281.537 62.3358C281.779 63.0198 281.907 63.6469 281.936 64.2027C283.276 64.2312 284.558 64.2597 285.784 64.2882C287.01 64.3167 287.964 64.3167 288.648 64.2882C289.503 64.2312 290.245 64.1314 290.872 63.9889C291.499 63.8464 292.083 63.5899 292.625 63.1908C293.223 62.7205 293.722 61.9937 294.121 61.0104C294.52 60.027 294.891 58.6874 295.233 56.9915C295.347 56.7064 295.432 56.1221 295.489 55.2385H290.715L290.686 55.2243Z" fill="white"/>
<path d="M292.938 45.7613C292.91 45.12 292.81 44.3219 292.625 43.3529C292.439 42.3838 292.226 41.4859 291.969 40.6451L289.789 41.2294C290.017 42.0702 290.202 42.9966 290.359 43.9942C290.515 44.9918 290.587 45.8326 290.587 46.5024L292.938 45.7471V45.7613Z" fill="white"/>
<path d="M295.204 39.847L293.152 40.6024C293.522 41.4432 293.836 42.3553 294.092 43.3529C294.349 44.3505 294.52 45.1913 294.606 45.8897L296.743 44.9633C296.658 44.265 296.472 43.4384 296.187 42.4978C295.902 41.543 295.575 40.6736 295.204 39.8613V39.847Z" fill="white"/>
<path d="M333.284 56.0652H323.721V25.2678H318.334V56.0652H308.985V34.0182H303.698V61.2669H333.284V64.2312H338.614V33.8614H333.284V56.0652Z" fill="white"/>
<path d="M363.112 45.1628C362.685 44.6925 362.2 44.1367 361.658 43.5239C361.117 42.9111 360.575 42.2983 360.034 41.6997C359.492 41.1012 358.993 40.5596 358.537 40.0608C358.096 39.5905 357.768 39.2627 357.511 39.0347V38.3649H363.141V33.6334H357.511V24.8688H352.523V33.6334H345.74V38.3649H351.796C351.554 39.2057 351.283 40.0608 350.97 40.9159C350.443 42.341 349.844 43.7519 349.16 45.1486C348.476 46.5452 347.749 47.8563 346.979 49.0677C346.21 50.2791 345.398 51.3479 344.542 52.2743C344.942 52.9441 345.412 53.7422 345.953 54.6828C346.495 55.6234 346.88 56.4499 347.108 57.1768C348.048 56.0937 348.932 54.7968 349.773 53.3146C350.614 51.8325 351.383 50.2221 352.096 48.4976C352.238 48.1414 352.381 47.7708 352.523 47.4003V64.217H357.511V45.3481C357.64 45.5333 357.768 45.7044 357.896 45.8896C358.495 46.7447 359.05 47.5856 359.564 48.3979C360.077 49.2245 360.504 49.9513 360.846 50.5926L364.053 46.2317C363.853 45.9751 363.54 45.6189 363.112 45.1486V45.1628Z" fill="white"/>
<path d="M379.202 42.4693C378.646 41.1011 378.176 39.7472 377.734 38.3791H384.233V33.6476H376.68V24.883H371.52V33.6476H364.48V38.3791H370.708C370.423 39.2199 370.11 40.0465 369.768 40.8874C369.083 42.569 368.3 44.1937 367.402 45.7756C366.504 47.3575 365.535 48.8397 364.495 50.222C363.454 51.6044 362.371 52.8158 361.231 53.8419C361.716 54.4547 362.243 55.1958 362.827 56.0651C363.411 56.9345 363.839 57.7325 364.124 58.4594C365.35 57.2908 366.504 55.8941 367.587 54.2695C368.67 52.6448 369.682 50.8919 370.637 49.0107C370.95 48.3979 371.221 47.7708 371.506 47.158V64.2455H376.665V47.2435C377.235 48.7684 377.82 50.2505 378.461 51.6614C379.487 53.9132 380.57 55.8371 381.71 57.419C382.166 56.7492 382.765 56.0366 383.52 55.2955C384.276 54.5545 384.945 53.9559 385.544 53.5141C384.375 52.1745 383.249 50.5498 382.152 48.6259C381.055 46.7162 380.071 44.664 379.188 42.4693H379.202Z" fill="white"/>
<path d="M390.788 36.2414C391.088 36.7687 391.316 37.239 391.487 37.6238C392.769 36.7545 394.052 35.7426 395.335 34.5598C396.617 33.3911 397.843 32.137 399.011 30.8116C400.18 29.4862 401.206 28.1609 402.09 26.8497L397.187 25.0113C396.646 25.9376 395.933 26.9067 395.035 27.9471C394.137 28.9874 393.154 29.9708 392.085 30.8971C391.016 31.8377 389.976 32.6501 388.95 33.3484C389.206 33.6904 389.506 34.118 389.848 34.6453C390.19 35.1726 390.503 35.7141 390.803 36.2414H390.788Z" fill="white"/>
<path d="M422.669 56.0651C424.308 54.5545 425.633 52.8016 426.659 50.7779L423.496 49.1817L422.64 49.3527H414.047C414.432 48.8112 414.802 48.2553 415.13 47.671H425.961V34.517H408.104C408.517 33.9612 408.916 33.3911 409.315 32.7783C409.315 32.7783 409.315 32.7783 409.315 32.764H428.341V28.7879H411.539C411.952 27.9043 412.351 27.0207 412.679 26.1086L407.947 24.94C407.263 26.921 406.308 28.8306 405.083 30.6548C403.857 32.479 402.489 34.0039 400.978 35.201C401.206 35.3293 401.491 35.5003 401.776 35.6856L398.114 34.1892C397.344 35.5573 396.418 36.9255 395.335 38.2793C394.252 39.6332 393.111 40.9016 391.914 42.0702C390.717 43.2388 389.52 44.2792 388.323 45.177C388.608 45.5618 388.907 46.1034 389.235 46.7875C389.563 47.4715 389.876 48.1413 390.176 48.7969C390.475 49.4525 390.674 49.9798 390.788 50.3646C391.872 49.481 392.94 48.4406 394.038 47.329V64.274H399.24V41.2009C400.479 39.5192 401.577 37.8518 402.503 36.1986C402.931 36.5122 403.358 36.8114 403.757 37.1392C404.242 37.5098 404.627 37.8518 404.912 38.1226C405.311 37.7378 405.71 37.3387 406.109 36.897V47.671H409.871C409.173 48.6116 408.346 49.4952 407.391 50.3361C406.736 49.6377 406.123 48.9252 405.596 48.1698L401.876 49.4667C402.589 50.6068 403.387 51.6757 404.256 52.6875C403.173 53.3859 402.033 54.0129 400.85 54.5402C401.192 54.7683 401.577 55.0818 402.004 55.4808C402.432 55.8799 402.859 56.2789 403.287 56.6779C403.715 57.0627 404.057 57.419 404.313 57.7325C405.339 57.1767 406.365 56.5354 407.363 55.8229C407.562 55.9939 407.733 56.1649 407.933 56.3217C408.717 56.963 409.543 57.5473 410.398 58.1173C409.415 58.4594 408.403 58.7586 407.363 59.0294C405.182 59.5852 402.916 60.027 400.551 60.3263C400.836 60.6683 401.135 61.0816 401.449 61.5804C401.762 62.0792 402.047 62.6065 402.304 63.1338C402.56 63.6611 402.76 64.1314 402.902 64.5162C405.467 64.0744 407.933 63.4759 410.327 62.7348C412.066 62.1932 413.691 61.5234 415.258 60.7966C415.543 60.9249 415.8 61.0674 416.085 61.1814C419.135 62.4783 422.455 63.4616 426.075 64.1314C426.332 63.6896 426.631 63.1908 426.973 62.6493C427.315 62.1077 427.671 61.5662 428.056 61.0389C428.441 60.5116 428.811 60.0555 429.182 59.6992C426.047 59.3145 423.125 58.6731 420.403 57.8323C421.173 57.2765 421.899 56.6779 422.583 56.0509L422.669 56.0651ZM410.698 37.8375H421.244V39.562H410.698V37.8375ZM410.698 42.6545H421.244V44.379H410.698V42.6545ZM410.855 53.0011H419.477C419.149 53.3146 418.807 53.6281 418.451 53.9274C417.553 54.6542 416.555 55.3241 415.458 55.9369C413.961 55.2385 412.55 54.4547 411.282 53.5996C411.083 53.4571 410.897 53.3146 410.698 53.1721C410.755 53.1151 410.798 53.0723 410.855 53.0153V53.0011Z" fill="white"/>
<path d="M456.202 26.3509L451.043 24.3842C450.16 25.5243 449.205 26.6359 448.179 27.6905C447.894 27.9756 447.623 28.2464 447.352 28.5314H433.927V32.8923H442.564C442.564 32.8923 442.493 32.9493 442.464 32.9778C441.666 33.6191 441.053 34.0894 440.626 34.403C439.828 34.9588 439.144 35.4148 438.559 35.7711C437.975 36.1274 437.391 36.3697 436.792 36.4979C436.992 36.9112 437.191 37.4243 437.391 38.0228C437.59 38.6214 437.775 39.2057 437.961 39.7615C438.146 40.3173 438.26 40.7591 438.317 41.0584C438.687 40.9444 439.158 40.8446 439.728 40.7591C440.298 40.6736 441.124 40.5881 442.208 40.5026C443.291 40.4171 444.787 40.3458 446.682 40.2746C448.592 40.2033 451.072 40.1035 454.136 39.9753C456.758 39.8613 459.965 39.733 463.656 39.5762C464.525 40.4171 465.224 41.1724 465.765 41.8422H438.716V48.4691C438.716 49.8088 438.63 51.2624 438.459 52.8301C438.288 54.3977 437.932 55.9511 437.391 57.5045C436.849 59.0579 435.98 60.4831 434.783 61.7942C435.21 61.9652 435.695 62.2218 436.236 62.5923C436.778 62.9486 437.305 63.3334 437.832 63.7182C438.36 64.103 438.744 64.4592 439.001 64.7585C439.999 63.6754 440.797 62.4498 441.409 61.0959C442.022 59.742 442.493 58.3311 442.82 56.8632C443.148 55.3953 443.376 53.9559 443.504 52.5308C443.633 51.1057 443.69 49.7945 443.69 48.5974V45.9609H462.858V52.2458C461.732 52.4168 460.62 52.6021 459.48 52.7731L460.848 49.994C459.708 49.5237 458.312 49.0534 456.644 48.5974C454.977 48.1414 453.224 47.7138 451.4 47.3433C449.561 46.9727 447.851 46.702 446.255 46.5737L444.716 49.595C446.369 49.823 448.093 50.1366 449.903 50.5641C451.713 50.9774 453.438 51.4334 455.091 51.9322C456.288 52.2885 457.328 52.6448 458.226 53.0011C457.913 53.0438 457.628 53.1009 457.314 53.1436C454.635 53.5426 452.127 53.9132 449.775 54.2267C447.424 54.5545 445.414 54.8253 443.732 55.039L445.229 59.4855C447.139 59.1292 449.205 58.7159 451.414 58.2741C453.637 57.8323 455.946 57.3478 458.354 56.8347C459.879 56.5069 461.361 56.1934 462.858 55.8656V58.9154C462.858 59.2575 462.772 59.4855 462.616 59.6138C462.459 59.742 462.174 59.8133 461.746 59.8418C461.518 59.8418 461.034 59.8418 460.278 59.856C459.523 59.8703 458.668 59.856 457.713 59.8418C456.758 59.8275 455.889 59.7705 455.091 59.7135C455.404 60.3548 455.675 61.0674 455.903 61.837C456.131 62.6066 456.288 63.3191 456.373 63.9889C458.454 63.9889 460.264 63.9747 461.818 63.9319C463.371 63.8892 464.654 63.7324 465.68 63.4474C466.677 63.1339 467.376 62.6636 467.789 62.008C468.202 61.3524 468.402 60.3548 468.402 59.0152V41.9135H466.563L470.539 39.4765C469.855 38.6927 468.972 37.8233 467.889 36.8542C466.806 35.8851 465.665 34.9445 464.454 34.0039C463.969 33.6334 463.499 33.2771 463.029 32.9351H471.908V28.5741H454.065C454.777 27.8473 455.504 27.149 456.202 26.3937V26.3509ZM459.438 35.8851L445.129 36.2699C446.369 35.3578 447.637 34.3602 448.934 33.2914C449.091 33.1631 449.234 33.0206 449.376 32.8923H458.582L456.858 33.9042C457.713 34.517 458.568 35.1868 459.452 35.8851H459.438Z" fill="white"/>
<path d="M512.154 46.8017H510.315C510.401 45.5048 510.458 44.1509 510.486 42.74H506.097C506.083 44.1652 506.04 45.5191 505.969 46.8017H502.719V50.6211H505.655C505.413 52.8301 504.942 54.7825 504.273 56.4927C503.589 58.2028 502.534 59.6707 501.123 60.9106C501.137 60.8109 501.166 60.7111 501.18 60.5971C501.351 59.5567 501.479 58.0603 501.579 56.0936C501.679 54.1269 501.75 51.5759 501.821 48.4406C501.85 48.1556 501.864 47.614 501.864 46.8017H496.121C496.192 45.5476 496.249 44.2507 496.278 42.9111H493.299C495.522 42.056 497.375 41.0584 498.829 39.9183C500.311 38.7639 501.494 37.4528 502.377 35.9849C502.905 35.1013 503.346 34.1322 503.717 33.1203H510.073C509.973 34.0894 509.859 34.8733 509.731 35.4861C509.489 36.6974 509.218 37.467 508.904 37.7663C508.705 37.9658 508.505 38.0798 508.306 38.1226C508.106 38.1653 507.85 38.1796 507.536 38.1796C507.194 38.1796 506.653 38.1796 505.912 38.1368C505.17 38.1083 504.387 38.0656 503.56 38.0086C503.931 38.5644 504.23 39.2342 504.458 40.018C504.686 40.8018 504.814 41.5287 504.843 42.1985C505.84 42.227 506.767 42.227 507.636 42.2127C508.505 42.2127 509.189 42.1557 509.702 42.0702C510.329 42.0132 510.885 41.8992 511.384 41.7139C511.883 41.5287 512.339 41.2009 512.766 40.7306C513.109 40.3458 513.408 39.7472 513.664 38.9634C513.921 38.1796 514.135 37.125 514.32 35.7996C514.505 34.4742 514.676 32.8068 514.847 30.7973C514.904 30.5123 514.947 29.9423 514.975 29.0729H504.672C504.9 27.776 505.085 26.4222 505.199 24.9685H500.425C500.325 26.4649 500.168 27.8045 499.954 29.0729H492.487V33.0918H498.757C498.629 33.3626 498.529 33.6476 498.373 33.9042C497.688 35.087 496.734 36.1416 495.494 37.068C494.297 37.9658 492.715 38.7354 490.777 39.391V35.4718H486.43V24.9115H481.527V35.4718H476.839V40.0465H481.527V64.2739H486.43V40.0465H490.777V39.6332C491.176 40.0323 491.603 40.5168 492.059 41.1154C492.558 41.7852 492.914 42.3695 493.142 42.8968H491.974C491.945 44.2507 491.902 45.5476 491.831 46.7874H488.382V50.6068H491.56C491.347 52.9013 490.905 54.9393 490.221 56.7064C489.537 58.4879 488.496 60.0128 487.1 61.2954C487.556 61.6802 488.054 62.179 488.596 62.7775C489.138 63.3761 489.551 63.9319 489.836 64.4307C491.546 62.8346 492.843 60.9819 493.741 58.8727C494.639 56.7635 495.266 54.3692 495.622 51.7042C495.665 51.3479 495.708 50.9631 495.75 50.5926H497.703C497.66 52.1032 497.617 53.4144 497.56 54.4832C497.475 56.2504 497.375 57.5473 497.275 58.4024C497.175 59.2575 497.047 59.799 496.876 60.0128C496.762 60.2123 496.634 60.3406 496.477 60.4118C496.32 60.4831 496.135 60.5116 495.907 60.5116C495.651 60.5116 495.337 60.5116 494.952 60.4688C494.567 60.4403 494.14 60.4118 493.655 60.3833C493.94 60.9106 494.168 61.5377 494.339 62.2645C494.51 62.9913 494.61 63.6611 494.639 64.2739C495.351 64.2739 496.007 64.274 496.605 64.2597C497.204 64.2454 497.703 64.2027 498.102 64.1172C498.615 64.0317 499.057 63.8892 499.427 63.7039C499.798 63.5044 500.14 63.1766 500.453 62.692C500.71 62.3643 500.924 61.8085 501.08 61.0389C501.565 61.4237 502.078 61.894 502.605 62.4783C503.161 63.0911 503.56 63.6469 503.817 64.1599C505.612 62.5923 506.966 60.7681 507.893 58.6874C508.819 56.6067 509.46 54.2409 509.831 51.5902C509.873 51.2624 509.916 50.9204 509.959 50.5783H512.04C511.983 52.0605 511.94 53.3574 511.883 54.412C511.797 56.1649 511.698 57.4475 511.598 58.2884C511.498 59.1292 511.37 59.6565 511.199 59.8845C511.085 60.084 510.957 60.2123 510.8 60.2836C510.643 60.3548 510.443 60.3833 510.187 60.3833C509.93 60.3833 509.603 60.3833 509.189 60.3691C508.776 60.3691 508.32 60.3263 507.807 60.2693C508.092 60.7966 508.334 61.4379 508.534 62.1932C508.733 62.9486 508.847 63.6469 508.876 64.2882C509.588 64.2882 510.258 64.2882 510.885 64.2739C511.512 64.2597 512.054 64.2169 512.51 64.1314C512.995 64.0174 513.422 63.8607 513.807 63.6754C514.192 63.4759 514.548 63.1481 514.89 62.6635C515.203 62.2788 515.446 61.5519 515.617 60.5116C515.788 59.4712 515.93 57.9748 516.044 56.0224C516.158 54.0842 516.244 51.5474 516.301 48.4121C516.329 48.1556 516.344 47.614 516.344 46.7732H512.168L512.154 46.8017Z" fill="white"/>
<path d="M556.376 33.1916C554.609 32.6643 552.927 32.0515 551.302 31.3531C549.678 30.6548 548.195 29.8995 546.842 29.0872C545.701 28.4031 544.732 27.6905 543.877 26.9494C544.091 26.6929 544.319 26.4506 544.519 26.1941L540.001 24.598C538.747 26.1941 537.108 27.6478 535.07 28.9732C533.032 30.2985 530.78 31.4529 528.3 32.4362C525.821 33.4196 523.27 34.2177 520.619 34.8305C520.904 35.144 521.232 35.5288 521.602 36.0276C521.973 36.5264 522.315 37.011 522.628 37.4955C522.942 37.9801 523.184 38.3933 523.355 38.7354C524.267 38.4646 525.151 38.1511 526.049 37.8375V48.5404H555.806V37.638C556.704 37.923 557.601 38.1796 558.499 38.4076C558.841 37.8233 559.34 37.1392 559.967 36.3696C560.594 35.6001 561.178 34.9873 561.692 34.5455C559.924 34.1892 558.171 33.7331 556.404 33.2058L556.376 33.1916ZM541.226 29.6002C541.896 30.1988 542.595 30.7831 543.364 31.3389C543.834 31.6952 544.333 32.0087 544.818 32.3507H537.493C537.934 32.0657 538.39 31.8092 538.818 31.5099C539.687 30.8971 540.471 30.2558 541.226 29.6002ZM546.571 45.4193H542.751V40.1748H545.844C545.673 40.8018 545.445 41.5144 545.131 42.3552C544.789 43.2816 544.462 44.0797 544.148 44.7495L546.557 45.4193H546.571ZM538.618 45.4193H534.286L537.008 44.6212C536.894 44.0084 536.68 43.2816 536.367 42.4408C536.053 41.6142 535.711 40.8588 535.326 40.1748H538.633V45.4193H538.618ZM532.718 43.4526C532.961 44.1937 533.117 44.8492 533.217 45.4193H530.281V40.1748H535.113L531.764 41.0584C532.106 41.7852 532.419 42.5833 532.704 43.4526H532.718ZM551.245 45.4193H547.782C548.096 44.892 548.438 44.2934 548.78 43.5809C549.193 42.74 549.635 41.8707 550.119 40.9871L546.77 40.189H551.231V45.4336L551.245 45.4193ZM528.201 37.0395C529.298 36.6119 530.381 36.1844 531.45 35.6998C532.106 35.4005 532.704 35.0585 533.331 34.745V35.6143H548.438V34.5027C549.948 35.3008 551.502 36.0276 553.112 36.6547C553.468 36.7972 553.81 36.8969 554.167 37.0252H528.201V37.0395Z" fill="white"/>
<path d="M528.372 64.2739H533.402V63.1481H548.338V64.1599H553.625V49.9085H528.357V64.2882L528.372 64.2739ZM533.402 59.8845V58.1173H548.338V59.8845H533.402ZM548.352 53.1721V54.8538H533.417V53.1721H548.352Z" fill="white"/>
</svg>
