<svg width="283" height="149" viewBox="0 0 283 149" fill="none" xmlns="http://www.w3.org/2000/svg">
<path d="M78.72 68.97C78.72 68.97 92.16 14.34 127.82 18.14C161.21 21.7 169.07 68.97 169.07 68.97H78.72Z" fill="#89BA2A"/>
<path d="M203.44 68.97C203.44 68.97 192.15 29.32 173.98 28.81C155.81 28.3 140.1 57.79 138.13 68.97H203.44Z" fill="#178B3B"/>
<path d="M138.13 68.97H169.07C169.07 68.97 166.17 51.58 156.44 37.09C146.57 46.55 139.42 61.66 138.14 68.97H138.13Z" fill="#146E38"/>
<path d="M23.0199 120.71H21.9699L19.1799 127.87H20.8199L21.3399 126.36H24.0299L24.5499 127.87H26.1999L23.3999 120.71H23.0099H23.0199ZM21.7499 125.21L22.6999 122.45L23.6499 125.21H21.7499Z" fill="#040000"/>
<path d="M30.5498 125C30.2298 124.87 29.8798 124.77 29.4698 124.69C29.2698 124.65 29.1098 124.61 28.9798 124.57C28.8498 124.53 28.7398 124.48 28.6598 124.42C28.5798 124.36 28.5198 124.31 28.4798 124.25C28.4398 124.19 28.4298 124.11 28.4298 124.03C28.4298 123.92 28.4598 123.82 28.5298 123.73C28.5898 123.64 28.6898 123.57 28.8098 123.51C28.9298 123.46 29.0698 123.43 29.2398 123.43C29.4398 123.43 29.5998 123.46 29.7298 123.53C29.8498 123.59 29.9498 123.68 30.0098 123.79C30.0698 123.9 30.0998 124.02 30.0998 124.16H31.5798C31.5798 123.83 31.4898 123.54 31.2998 123.28C31.1098 123.02 30.8498 122.82 30.4998 122.67C30.1498 122.52 29.7398 122.45 29.2498 122.45C28.8998 122.45 28.5898 122.49 28.3198 122.58C28.0498 122.67 27.8098 122.79 27.6198 122.94C27.4298 123.09 27.2798 123.27 27.1798 123.46C27.0798 123.65 27.0298 123.87 27.0298 124.09C27.0298 124.31 27.0798 124.52 27.1798 124.69C27.2798 124.87 27.4198 125.02 27.5898 125.14C27.7698 125.27 27.9798 125.38 28.2198 125.47C28.4598 125.56 28.7198 125.63 29.0098 125.69C29.3198 125.75 29.5598 125.81 29.7298 125.88C29.8998 125.95 30.0098 126.03 30.0698 126.11C30.1298 126.19 30.1598 126.28 30.1598 126.39C30.1598 126.5 30.1298 126.61 30.0598 126.69C29.9898 126.78 29.8998 126.85 29.7698 126.9C29.6398 126.95 29.4798 126.98 29.2898 126.98C29.1098 126.98 28.9498 126.95 28.7898 126.9C28.6398 126.85 28.5098 126.76 28.4098 126.64C28.3098 126.52 28.2598 126.37 28.2498 126.17H26.8398C26.8398 126.46 26.9298 126.74 27.1198 127.01C27.2998 127.28 27.5698 127.51 27.9298 127.69C28.2898 127.87 28.7298 127.96 29.2498 127.96C29.6098 127.96 29.9298 127.92 30.2198 127.84C30.5098 127.76 30.7498 127.65 30.9598 127.5C31.1698 127.35 31.3198 127.18 31.4298 126.99C31.5398 126.79 31.5898 126.58 31.5898 126.34C31.5898 125.99 31.4998 125.71 31.3098 125.5C31.1198 125.28 30.8698 125.11 30.5598 124.99L30.5498 125Z" fill="#040000"/>
<path d="M36.2898 125C35.9698 124.87 35.6198 124.77 35.2098 124.69C35.0098 124.65 34.8498 124.61 34.7198 124.57C34.5898 124.53 34.4798 124.48 34.3998 124.42C34.3198 124.36 34.2598 124.31 34.2198 124.25C34.1798 124.19 34.1698 124.11 34.1698 124.03C34.1698 123.92 34.1998 123.82 34.2698 123.73C34.3298 123.64 34.4298 123.57 34.5498 123.51C34.6698 123.46 34.8098 123.43 34.9798 123.43C35.1798 123.43 35.3398 123.46 35.4698 123.53C35.5898 123.59 35.6898 123.68 35.7498 123.79C35.8098 123.9 35.8398 124.02 35.8398 124.16H37.3198C37.3198 123.83 37.2298 123.54 37.0398 123.28C36.8498 123.02 36.5898 122.82 36.2398 122.67C35.8898 122.52 35.4798 122.45 34.9898 122.45C34.6398 122.45 34.3298 122.49 34.0598 122.58C33.7898 122.67 33.5498 122.79 33.3598 122.94C33.1698 123.09 33.0198 123.27 32.9198 123.46C32.8198 123.65 32.7698 123.87 32.7698 124.09C32.7698 124.31 32.8198 124.52 32.9198 124.69C33.0198 124.87 33.1598 125.02 33.3298 125.14C33.5098 125.27 33.7198 125.38 33.9598 125.47C34.1998 125.56 34.4598 125.63 34.7498 125.69C35.0598 125.75 35.2998 125.81 35.4698 125.88C35.6398 125.95 35.7498 126.03 35.8098 126.11C35.8698 126.19 35.8998 126.28 35.8998 126.39C35.8998 126.5 35.8698 126.61 35.7998 126.69C35.7298 126.78 35.6398 126.85 35.5098 126.9C35.3798 126.95 35.2198 126.98 35.0298 126.98C34.8498 126.98 34.6898 126.95 34.5298 126.9C34.3798 126.85 34.2498 126.76 34.1498 126.64C34.0498 126.52 33.9998 126.37 33.9898 126.17H32.5798C32.5798 126.46 32.6698 126.74 32.8598 127.01C33.0398 127.28 33.3098 127.51 33.6698 127.69C34.0298 127.87 34.4698 127.96 34.9898 127.96C35.3498 127.96 35.6698 127.92 35.9598 127.84C36.2498 127.76 36.4898 127.65 36.6998 127.5C36.9098 127.35 37.0598 127.18 37.1698 126.99C37.2798 126.79 37.3298 126.58 37.3298 126.34C37.3298 125.99 37.2398 125.71 37.0498 125.5C36.8598 125.28 36.6098 125.11 36.2998 124.99L36.2898 125Z" fill="#040000"/>
<path d="M42.9499 123.23C42.7199 122.99 42.4499 122.8 42.1199 122.66C41.7899 122.52 41.4099 122.46 40.9899 122.46C40.5699 122.46 40.1899 122.53 39.8699 122.66C39.5499 122.79 39.2699 122.99 39.0499 123.23C38.8299 123.47 38.6599 123.76 38.5399 124.09C38.4199 124.42 38.3599 124.78 38.3599 125.17V125.27C38.3599 125.66 38.4199 126.02 38.5399 126.35C38.6599 126.68 38.8299 126.97 39.0499 127.21C39.2699 127.45 39.5499 127.64 39.8799 127.78C40.2099 127.92 40.5799 127.98 40.9999 127.98C41.4199 127.98 41.7999 127.91 42.1199 127.78C42.4399 127.65 42.7199 127.46 42.9499 127.21C43.1699 126.97 43.3499 126.68 43.4599 126.35C43.5799 126.02 43.6399 125.66 43.6399 125.27V125.17C43.6399 124.78 43.5799 124.42 43.4599 124.09C43.3399 123.76 43.1699 123.47 42.9499 123.23ZM42.1499 125.27C42.1499 125.49 42.1299 125.7 42.0899 125.89C42.0499 126.08 41.9799 126.25 41.8899 126.4C41.7999 126.55 41.6799 126.66 41.5299 126.74C41.3799 126.82 41.2099 126.86 40.9999 126.86C40.7899 126.86 40.6099 126.82 40.4599 126.74C40.3099 126.66 40.1899 126.54 40.0999 126.4C40.0099 126.26 39.9399 126.08 39.8999 125.89C39.8599 125.7 39.8399 125.49 39.8399 125.27V125.17C39.8399 124.95 39.8599 124.75 39.8999 124.56C39.9399 124.37 40.0099 124.2 40.0999 124.05C40.1899 123.9 40.3099 123.78 40.4599 123.7C40.6099 123.61 40.7799 123.57 40.9899 123.57C41.1999 123.57 41.3799 123.61 41.5299 123.7C41.6799 123.79 41.7999 123.9 41.8899 124.05C41.9799 124.2 42.0499 124.37 42.0899 124.56C42.1299 124.75 42.1499 124.96 42.1499 125.17V125.27Z" fill="#040000"/>
<path d="M46.1499 124.55C46.1799 124.36 46.2299 124.19 46.3099 124.04C46.3899 123.89 46.4899 123.77 46.6299 123.69C46.7699 123.61 46.9399 123.56 47.1599 123.56C47.3599 123.56 47.5299 123.6 47.6699 123.69C47.8099 123.78 47.9199 123.89 47.9899 124.04C48.0599 124.18 48.0999 124.34 48.1099 124.52H49.5099C49.5099 124.1 49.4099 123.73 49.2099 123.42C49.0099 123.11 48.7399 122.87 48.3999 122.7C48.0599 122.53 47.6499 122.45 47.1999 122.45C46.7699 122.45 46.3999 122.52 46.0799 122.66C45.7599 122.8 45.4899 122.99 45.2799 123.23C45.0699 123.47 44.9099 123.76 44.7999 124.09C44.6899 124.42 44.6399 124.77 44.6399 125.15V125.29C44.6399 125.66 44.6899 126.01 44.7999 126.34C44.9099 126.67 45.0699 126.95 45.2799 127.2C45.4899 127.45 45.7599 127.64 46.0799 127.77C46.3999 127.91 46.7799 127.98 47.2099 127.98C47.6399 127.98 48.0299 127.9 48.3699 127.73C48.7099 127.56 48.9899 127.34 49.1999 127.05C49.4099 126.76 49.5099 126.43 49.5099 126.05H48.1099C48.1099 126.22 48.0599 126.36 47.9799 126.49C47.8999 126.61 47.7899 126.71 47.6499 126.78C47.5099 126.85 47.3499 126.88 47.1699 126.88C46.9499 126.88 46.7699 126.84 46.6299 126.75C46.4899 126.66 46.3899 126.55 46.3099 126.4C46.2299 126.25 46.1799 126.08 46.1499 125.89C46.1199 125.7 46.1099 125.5 46.1099 125.29V125.15C46.1099 124.94 46.1199 124.75 46.1499 124.56V124.55Z" fill="#040000"/>
<path d="M51.4899 120.45C51.2399 120.45 51.0299 120.52 50.8799 120.65C50.7299 120.78 50.6499 120.96 50.6499 121.16C50.6499 121.36 50.7299 121.54 50.8799 121.67C51.0299 121.8 51.2299 121.87 51.4899 121.87C51.7499 121.87 51.9399 121.8 52.0999 121.67C52.2499 121.54 52.3299 121.37 52.3299 121.16C52.3299 120.95 52.2499 120.78 52.0999 120.65C51.9499 120.52 51.7499 120.45 51.4899 120.45Z" fill="#040000"/>
<path d="M52.24 122.55H50.75V127.87H52.24V122.55Z" fill="#040000"/>
<path d="M58.28 126.59V124.31C58.28 123.9 58.1801 123.55 57.9901 123.28C57.8001 123 57.53 122.8 57.19 122.66C56.85 122.52 56.4701 122.45 56.0401 122.45C55.6801 122.45 55.3501 122.49 55.0601 122.58C54.7701 122.67 54.5201 122.79 54.3101 122.95C54.1001 123.11 53.9401 123.29 53.8301 123.49C53.7201 123.69 53.67 123.91 53.67 124.13H55.1501C55.1501 124 55.18 123.88 55.25 123.78C55.32 123.68 55.41 123.6 55.53 123.55C55.65 123.5 55.79 123.47 55.96 123.47C56.15 123.47 56.3101 123.51 56.43 123.57C56.55 123.64 56.6401 123.73 56.7001 123.86C56.7601 123.98 56.7901 124.13 56.7901 124.3V124.63H56.1301C55.7001 124.63 55.33 124.67 55.01 124.75C54.69 124.83 54.4201 124.94 54.2001 125.09C53.9901 125.24 53.82 125.42 53.71 125.64C53.6 125.86 53.55 126.1 53.55 126.38C53.55 126.69 53.63 126.96 53.8 127.2C53.97 127.44 54.19 127.63 54.48 127.77C54.77 127.91 55.09 127.97 55.44 127.97C55.72 127.97 55.96 127.93 56.16 127.85C56.36 127.77 56.54 127.67 56.68 127.54C56.75 127.48 56.79 127.41 56.85 127.35C56.89 127.56 56.94 127.74 57.01 127.88H58.51V127.8C58.44 127.66 58.38 127.5 58.35 127.32C58.32 127.14 58.2901 126.9 58.2901 126.6L58.28 126.59ZM56.34 126.79C56.18 126.88 55.98 126.92 55.76 126.92C55.61 126.92 55.48 126.89 55.37 126.84C55.26 126.79 55.18 126.71 55.12 126.61C55.06 126.51 55.03 126.4 55.03 126.28C55.03 126.16 55.05 126.05 55.09 125.95C55.13 125.85 55.2001 125.76 55.2901 125.68C55.3801 125.6 55.5001 125.54 55.6501 125.5C55.7901 125.46 55.96 125.44 56.16 125.44H56.78V126.37C56.78 126.37 56.7401 126.44 56.7201 126.48C56.6301 126.6 56.5 126.71 56.34 126.79Z" fill="#040000"/>
<path d="M62.34 126.83C62.27 126.83 62.18 126.84 62.09 126.84C61.96 126.84 61.85 126.82 61.77 126.79C61.68 126.76 61.62 126.7 61.58 126.62C61.54 126.54 61.52 126.42 61.52 126.27V123.55H62.48V122.55H61.52V121.24H60.04V122.55H59.24V123.55H60.04V126.41C60.04 126.78 60.11 127.09 60.24 127.32C60.37 127.55 60.56 127.72 60.8 127.82C61.04 127.92 61.33 127.97 61.65 127.97C61.83 127.97 61.99 127.96 62.14 127.94C62.29 127.92 62.42 127.89 62.55 127.85V126.81C62.49 126.81 62.43 126.83 62.36 126.84L62.34 126.83Z" fill="#040000"/>
<path d="M65.19 122.55H63.7V127.87H65.19V122.55Z" fill="#040000"/>
<path d="M64.4399 120.45C64.1899 120.45 63.9799 120.52 63.8299 120.65C63.6799 120.78 63.5999 120.96 63.5999 121.16C63.5999 121.36 63.6799 121.54 63.8299 121.67C63.9799 121.8 64.1799 121.87 64.4399 121.87C64.6999 121.87 64.8899 121.8 65.0499 121.67C65.1999 121.54 65.2799 121.37 65.2799 121.16C65.2799 120.95 65.1999 120.78 65.0499 120.65C64.8999 120.52 64.6999 120.45 64.4399 120.45Z" fill="#040000"/>
<path d="M71.08 123.23C70.85 122.99 70.58 122.8 70.25 122.66C69.92 122.52 69.54 122.46 69.12 122.46C68.7 122.46 68.32 122.53 68 122.66C67.68 122.79 67.4 122.99 67.18 123.23C66.96 123.47 66.79 123.76 66.67 124.09C66.55 124.42 66.49 124.78 66.49 125.17V125.27C66.49 125.66 66.55 126.02 66.67 126.35C66.79 126.68 66.96 126.97 67.18 127.21C67.4 127.45 67.68 127.64 68.01 127.78C68.34 127.92 68.71 127.98 69.13 127.98C69.55 127.98 69.93 127.91 70.25 127.78C70.57 127.65 70.85 127.46 71.08 127.21C71.3 126.97 71.48 126.68 71.59 126.35C71.71 126.02 71.77 125.66 71.77 125.27V125.17C71.77 124.78 71.71 124.42 71.59 124.09C71.47 123.76 71.3 123.47 71.08 123.23ZM70.28 125.27C70.28 125.49 70.26 125.7 70.22 125.89C70.18 126.08 70.11 126.25 70.02 126.4C69.93 126.55 69.81 126.66 69.66 126.74C69.51 126.82 69.34 126.86 69.13 126.86C68.92 126.86 68.74 126.82 68.59 126.74C68.44 126.66 68.32 126.54 68.23 126.4C68.14 126.26 68.07 126.08 68.03 125.89C67.99 125.7 67.97 125.49 67.97 125.27V125.17C67.97 124.95 67.99 124.75 68.03 124.56C68.07 124.37 68.14 124.2 68.23 124.05C68.32 123.9 68.44 123.78 68.59 123.7C68.74 123.61 68.91 123.57 69.12 123.57C69.33 123.57 69.51 123.61 69.66 123.7C69.81 123.79 69.93 123.9 70.02 124.05C70.11 124.2 70.18 124.37 70.22 124.56C70.26 124.75 70.28 124.96 70.28 125.17V125.27Z" fill="#040000"/>
<path d="M77.29 122.91C77.13 122.75 76.95 122.64 76.73 122.57C76.51 122.5 76.28 122.46 76.01 122.46C75.68 122.46 75.38 122.52 75.12 122.64C74.85 122.76 74.63 122.93 74.43 123.16C74.42 123.17 74.41 123.19 74.4 123.2L74.35 122.56H72.96V127.88H74.44V124.15C74.44 124.15 74.48 124.04 74.51 124C74.6 123.87 74.72 123.76 74.87 123.69C75.02 123.62 75.19 123.58 75.39 123.58C75.59 123.58 75.74 123.61 75.88 123.66C76.01 123.71 76.11 123.81 76.18 123.94C76.25 124.07 76.28 124.25 76.28 124.49V127.89H77.77V124.5C77.77 124.13 77.73 123.81 77.64 123.55C77.56 123.29 77.44 123.08 77.28 122.92L77.29 122.91Z" fill="#040000"/>
<path d="M86.5099 123.23C86.2799 122.99 86.0099 122.8 85.6799 122.66C85.3499 122.52 84.9699 122.46 84.5499 122.46C84.1299 122.46 83.7499 122.53 83.4299 122.66C83.1099 122.79 82.8299 122.99 82.6099 123.23C82.3899 123.47 82.2199 123.76 82.0999 124.09C81.9799 124.42 81.9199 124.78 81.9199 125.17V125.27C81.9199 125.66 81.9799 126.02 82.0999 126.35C82.2199 126.68 82.3899 126.97 82.6099 127.21C82.8299 127.45 83.1099 127.64 83.4399 127.78C83.7699 127.92 84.1399 127.98 84.5599 127.98C84.9799 127.98 85.3599 127.91 85.6799 127.78C85.9999 127.65 86.2799 127.46 86.5099 127.21C86.7299 126.97 86.9099 126.68 87.0199 126.35C87.1399 126.02 87.1999 125.66 87.1999 125.27V125.17C87.1999 124.78 87.1399 124.42 87.0199 124.09C86.8999 123.76 86.7299 123.47 86.5099 123.23ZM85.7099 125.27C85.7099 125.49 85.6899 125.7 85.6499 125.89C85.6099 126.08 85.5399 126.25 85.4499 126.4C85.3599 126.55 85.2399 126.66 85.0899 126.74C84.9399 126.82 84.7699 126.86 84.5599 126.86C84.3499 126.86 84.1699 126.82 84.0199 126.74C83.8699 126.66 83.7499 126.54 83.6599 126.4C83.5699 126.26 83.4999 126.08 83.4599 125.89C83.4199 125.7 83.3999 125.49 83.3999 125.27V125.17C83.3999 124.95 83.4199 124.75 83.4599 124.56C83.4999 124.37 83.5699 124.2 83.6599 124.05C83.7499 123.9 83.8699 123.78 84.0199 123.7C84.1699 123.61 84.3399 123.57 84.5499 123.57C84.7599 123.57 84.9399 123.61 85.0899 123.7C85.2399 123.79 85.3599 123.9 85.4499 124.05C85.5399 124.2 85.6099 124.37 85.6499 124.56C85.6899 124.75 85.7099 124.96 85.7099 125.17V125.27Z" fill="#040000"/>
<path d="M90.86 120.22C90.44 120.22 90.08 120.29 89.78 120.43C89.48 120.57 89.24 120.78 89.07 121.06C88.9 121.34 88.82 121.68 88.82 122.08V122.55H87.99V123.55H88.82V127.87H90.31V123.55H91.42V122.55H90.31V122.08C90.31 121.92 90.34 121.78 90.41 121.67C90.48 121.56 90.57 121.47 90.7 121.42C90.83 121.37 90.98 121.33 91.16 121.33C91.26 121.33 91.34 121.33 91.41 121.33C91.48 121.33 91.55 121.35 91.62 121.36L91.64 120.29C91.52 120.26 91.4 120.24 91.27 120.22C91.14 120.2 91.01 120.19 90.87 120.19L90.86 120.22Z" fill="#040000"/>
<path d="M97.0798 120.71H94.8098V121.87H97.0798V127.88H98.6198V121.87H100.93V120.71H98.6198H97.0798Z" fill="#040000"/>
<path d="M105.76 126.59V124.31C105.76 123.9 105.66 123.55 105.47 123.28C105.28 123 105.01 122.8 104.67 122.66C104.33 122.52 103.95 122.45 103.52 122.45C103.16 122.45 102.83 122.49 102.54 122.58C102.25 122.67 102 122.79 101.79 122.95C101.58 123.11 101.42 123.29 101.31 123.49C101.2 123.69 101.15 123.91 101.15 124.13H102.63C102.63 124 102.66 123.88 102.73 123.78C102.8 123.68 102.89 123.6 103.01 123.55C103.13 123.5 103.27 123.47 103.44 123.47C103.63 123.47 103.79 123.51 103.91 123.57C104.03 123.64 104.12 123.73 104.18 123.86C104.24 123.98 104.27 124.13 104.27 124.3V124.63H103.61C103.18 124.63 102.81 124.67 102.49 124.75C102.17 124.83 101.9 124.94 101.68 125.09C101.47 125.24 101.3 125.42 101.19 125.64C101.08 125.86 101.03 126.1 101.03 126.38C101.03 126.69 101.11 126.96 101.28 127.2C101.45 127.44 101.67 127.63 101.96 127.77C102.25 127.91 102.57 127.97 102.92 127.97C103.2 127.97 103.44 127.93 103.64 127.85C103.84 127.77 104.02 127.67 104.16 127.54C104.23 127.48 104.27 127.41 104.33 127.35C104.37 127.56 104.42 127.74 104.49 127.88H105.99V127.8C105.92 127.66 105.86 127.5 105.83 127.32C105.8 127.14 105.77 126.9 105.77 126.6L105.76 126.59ZM103.81 126.79C103.65 126.88 103.45 126.92 103.23 126.92C103.08 126.92 102.95 126.89 102.84 126.84C102.73 126.79 102.65 126.71 102.59 126.61C102.53 126.51 102.5 126.4 102.5 126.28C102.5 126.16 102.52 126.05 102.56 125.95C102.6 125.85 102.67 125.76 102.76 125.68C102.85 125.6 102.97 125.54 103.12 125.5C103.26 125.46 103.43 125.44 103.63 125.44H104.25V126.37C104.25 126.37 104.21 126.44 104.19 126.48C104.1 126.6 103.97 126.71 103.81 126.79Z" fill="#040000"/>
<path d="M108.78 122.55H107.29V127.87H108.78V122.55Z" fill="#040000"/>
<path d="M108.03 120.45C107.78 120.45 107.57 120.52 107.42 120.65C107.27 120.78 107.19 120.96 107.19 121.16C107.19 121.36 107.27 121.54 107.42 121.67C107.57 121.8 107.77 121.87 108.03 121.87C108.29 121.87 108.48 121.8 108.64 121.67C108.79 121.54 108.87 121.37 108.87 121.16C108.87 120.95 108.79 120.78 108.64 120.65C108.49 120.52 108.29 120.45 108.03 120.45Z" fill="#040000"/>
<path d="M115.16 126.01L114.14 122.55H114.01H113.21H113.07L112.05 126.02L111.33 122.55H109.89L111.31 127.88H111.76H112.23H112.55L113.61 124.44L114.66 127.88H114.99H115.45H115.91L117.32 122.55H115.88L115.16 126.01Z" fill="#040000"/>
<path d="M122.88 126.59V124.31C122.88 123.9 122.78 123.55 122.59 123.28C122.4 123 122.13 122.8 121.79 122.66C121.45 122.52 121.07 122.45 120.64 122.45C120.28 122.45 119.95 122.49 119.66 122.58C119.37 122.67 119.12 122.79 118.91 122.95C118.7 123.11 118.54 123.29 118.43 123.49C118.32 123.69 118.27 123.91 118.27 124.13H119.75C119.75 124 119.78 123.88 119.85 123.78C119.92 123.68 120.01 123.6 120.13 123.55C120.25 123.5 120.39 123.47 120.56 123.47C120.75 123.47 120.91 123.51 121.03 123.57C121.15 123.64 121.24 123.73 121.3 123.86C121.36 123.98 121.39 124.13 121.39 124.3V124.63H120.73C120.3 124.63 119.93 124.67 119.61 124.75C119.29 124.83 119.02 124.94 118.8 125.09C118.59 125.24 118.42 125.42 118.31 125.64C118.2 125.86 118.15 126.1 118.15 126.38C118.15 126.69 118.23 126.96 118.4 127.2C118.57 127.44 118.79 127.63 119.08 127.77C119.37 127.91 119.69 127.97 120.04 127.97C120.32 127.97 120.56 127.93 120.76 127.85C120.96 127.77 121.14 127.67 121.28 127.54C121.35 127.48 121.39 127.41 121.45 127.35C121.49 127.56 121.54 127.74 121.61 127.88H123.11V127.8C123.04 127.66 122.98 127.5 122.95 127.32C122.92 127.14 122.89 126.9 122.89 126.6L122.88 126.59ZM120.94 126.79C120.78 126.88 120.58 126.92 120.36 126.92C120.21 126.92 120.08 126.89 119.97 126.84C119.86 126.79 119.78 126.71 119.72 126.61C119.66 126.51 119.63 126.4 119.63 126.28C119.63 126.16 119.65 126.05 119.69 125.95C119.73 125.85 119.8 125.76 119.89 125.68C119.98 125.6 120.1 125.54 120.25 125.5C120.39 125.46 120.56 125.44 120.76 125.44H121.38V126.37C121.38 126.37 121.34 126.44 121.32 126.48C121.23 126.6 121.1 126.71 120.94 126.79Z" fill="#040000"/>
<path d="M128.64 122.91C128.48 122.75 128.3 122.64 128.08 122.57C127.86 122.5 127.63 122.46 127.36 122.46C127.03 122.46 126.73 122.52 126.47 122.64C126.2 122.76 125.98 122.93 125.78 123.16C125.77 123.17 125.76 123.19 125.75 123.2L125.7 122.56H124.31V127.88H125.79V124.15C125.79 124.15 125.83 124.04 125.86 124C125.95 123.87 126.07 123.76 126.22 123.69C126.37 123.62 126.54 123.58 126.74 123.58C126.94 123.58 127.09 123.61 127.23 123.66C127.36 123.71 127.46 123.81 127.53 123.94C127.6 124.07 127.63 124.25 127.63 124.49V127.89H129.12V124.5C129.12 124.13 129.08 123.81 128.99 123.55C128.91 123.29 128.79 123.08 128.63 122.92L128.64 122.91Z" fill="#040000"/>
<path d="M134.72 120.71H133.6V127.88H135.14V124.93H138.13V123.77H135.14V121.87H138.49V120.71H135.14H134.72Z" fill="#040000"/>
<path d="M143.85 123.23C143.62 122.99 143.35 122.8 143.02 122.66C142.69 122.52 142.31 122.46 141.89 122.46C141.47 122.46 141.09 122.53 140.77 122.66C140.45 122.79 140.17 122.99 139.95 123.23C139.73 123.47 139.56 123.76 139.44 124.09C139.32 124.42 139.26 124.78 139.26 125.17V125.27C139.26 125.66 139.32 126.02 139.44 126.35C139.56 126.68 139.73 126.97 139.95 127.21C140.17 127.45 140.45 127.64 140.78 127.78C141.11 127.92 141.48 127.98 141.9 127.98C142.32 127.98 142.7 127.91 143.02 127.78C143.34 127.65 143.62 127.46 143.85 127.21C144.07 126.97 144.25 126.68 144.36 126.35C144.48 126.02 144.54 125.66 144.54 125.27V125.17C144.54 124.78 144.48 124.42 144.36 124.09C144.24 123.76 144.07 123.47 143.85 123.23ZM143.05 125.27C143.05 125.49 143.03 125.7 142.99 125.89C142.95 126.08 142.88 126.25 142.79 126.4C142.7 126.55 142.58 126.66 142.43 126.74C142.28 126.82 142.11 126.86 141.9 126.86C141.69 126.86 141.51 126.82 141.36 126.74C141.21 126.66 141.09 126.54 141 126.4C140.91 126.26 140.84 126.08 140.8 125.89C140.76 125.7 140.74 125.49 140.74 125.27V125.17C140.74 124.95 140.76 124.75 140.8 124.56C140.84 124.37 140.91 124.2 141 124.05C141.09 123.9 141.21 123.78 141.36 123.7C141.51 123.61 141.68 123.57 141.89 123.57C142.1 123.57 142.28 123.61 142.43 123.7C142.58 123.79 142.7 123.9 142.79 124.05C142.88 124.2 142.95 124.37 142.99 124.56C143.03 124.75 143.05 124.96 143.05 125.17V125.27Z" fill="#040000"/>
<path d="M148.46 122.46C148.2 122.46 147.97 122.52 147.76 122.64C147.55 122.76 147.39 122.93 147.25 123.14C147.23 123.17 147.22 123.2 147.21 123.23L147.16 122.56H145.76V127.88H147.24V124.4C147.29 124.29 147.35 124.18 147.43 124.09C147.53 123.99 147.66 123.92 147.81 123.87C147.96 123.82 148.14 123.79 148.35 123.79C148.43 123.79 148.52 123.79 148.63 123.8C148.74 123.81 148.82 123.82 148.89 123.83L148.92 122.52C148.87 122.5 148.79 122.48 148.71 122.47C148.62 122.46 148.54 122.45 148.46 122.45V122.46Z" fill="#040000"/>
<path d="M154.07 123.17C153.86 122.94 153.61 122.76 153.3 122.64C152.99 122.52 152.64 122.45 152.25 122.45C151.86 122.45 151.48 122.52 151.16 122.65C150.84 122.78 150.56 122.97 150.34 123.22C150.12 123.47 149.94 123.76 149.82 124.09C149.7 124.42 149.64 124.79 149.64 125.2V125.4C149.64 125.75 149.7 126.09 149.83 126.4C149.96 126.71 150.14 126.99 150.38 127.22C150.62 127.45 150.91 127.64 151.25 127.77C151.59 127.9 151.98 127.97 152.41 127.97C152.77 127.97 153.09 127.92 153.37 127.83C153.65 127.74 153.89 127.62 154.09 127.47C154.29 127.32 154.45 127.17 154.57 127.01L153.85 126.26C153.68 126.46 153.48 126.62 153.25 126.71C153.02 126.81 152.77 126.86 152.5 126.86C152.28 126.86 152.09 126.82 151.92 126.75C151.75 126.68 151.61 126.58 151.49 126.45C151.37 126.32 151.28 126.16 151.22 125.98C151.18 125.88 151.18 125.76 151.17 125.65H154.7V125.06C154.7 124.67 154.65 124.31 154.54 123.99C154.43 123.67 154.28 123.4 154.07 123.17ZM153.24 124.71H151.17C151.17 124.66 151.17 124.6 151.19 124.55C151.23 124.35 151.3 124.18 151.39 124.03C151.48 123.88 151.59 123.77 151.73 123.69C151.87 123.61 152.04 123.57 152.23 123.57C152.46 123.57 152.65 123.62 152.8 123.71C152.95 123.8 153.06 123.93 153.13 124.08C153.2 124.24 153.24 124.41 153.24 124.61V124.72V124.71Z" fill="#040000"/>
<path d="M159.28 125C158.96 124.87 158.61 124.77 158.2 124.69C158 124.65 157.84 124.61 157.71 124.57C157.58 124.53 157.47 124.48 157.39 124.42C157.31 124.36 157.25 124.31 157.21 124.25C157.17 124.19 157.16 124.11 157.16 124.03C157.16 123.92 157.19 123.82 157.26 123.73C157.32 123.64 157.42 123.57 157.54 123.51C157.66 123.46 157.8 123.43 157.97 123.43C158.17 123.43 158.33 123.46 158.46 123.53C158.58 123.59 158.68 123.68 158.74 123.79C158.8 123.9 158.83 124.02 158.83 124.16H160.31C160.31 123.83 160.22 123.54 160.03 123.28C159.84 123.02 159.58 122.82 159.23 122.67C158.88 122.52 158.47 122.45 157.98 122.45C157.63 122.45 157.32 122.49 157.05 122.58C156.78 122.67 156.54 122.79 156.35 122.94C156.16 123.09 156.01 123.27 155.91 123.46C155.81 123.65 155.76 123.87 155.76 124.09C155.76 124.31 155.81 124.52 155.91 124.69C156.01 124.87 156.15 125.02 156.32 125.14C156.5 125.27 156.71 125.38 156.95 125.47C157.19 125.56 157.45 125.63 157.74 125.69C158.05 125.75 158.29 125.81 158.46 125.88C158.63 125.95 158.74 126.03 158.8 126.11C158.86 126.19 158.89 126.28 158.89 126.39C158.89 126.5 158.86 126.61 158.79 126.69C158.72 126.78 158.63 126.85 158.5 126.9C158.37 126.95 158.21 126.98 158.02 126.98C157.84 126.98 157.68 126.95 157.52 126.9C157.37 126.85 157.24 126.76 157.14 126.64C157.04 126.52 156.99 126.37 156.98 126.17H155.57C155.57 126.46 155.66 126.74 155.85 127.01C156.03 127.28 156.3 127.51 156.66 127.69C157.02 127.87 157.46 127.96 157.98 127.96C158.34 127.96 158.66 127.92 158.95 127.84C159.24 127.76 159.48 127.65 159.69 127.5C159.9 127.35 160.05 127.18 160.16 126.99C160.27 126.79 160.32 126.58 160.32 126.34C160.32 125.99 160.23 125.71 160.04 125.5C159.85 125.28 159.6 125.11 159.29 124.99L159.28 125Z" fill="#040000"/>
<path d="M164.19 126.83C164.12 126.83 164.03 126.84 163.94 126.84C163.81 126.84 163.7 126.82 163.62 126.79C163.53 126.76 163.47 126.7 163.43 126.62C163.39 126.54 163.37 126.42 163.37 126.27V123.55H164.33V122.55H163.37V121.24H161.89V122.55H161.09V123.55H161.89V126.41C161.89 126.78 161.96 127.09 162.09 127.32C162.22 127.55 162.41 127.72 162.65 127.82C162.89 127.92 163.18 127.97 163.5 127.97C163.68 127.97 163.84 127.96 163.99 127.94C164.14 127.92 164.27 127.89 164.4 127.85V126.81C164.34 126.81 164.28 126.83 164.21 126.84L164.19 126.83Z" fill="#040000"/>
<path d="M173.29 124.54C173.54 124.36 173.73 124.13 173.86 123.86C174 123.59 174.06 123.26 174.06 122.87C174.06 122.4 173.95 122.01 173.72 121.68C173.5 121.36 173.18 121.12 172.77 120.95C172.36 120.78 171.86 120.7 171.29 120.7H168.49V127.86H170.03V125.21H171.26L172.68 127.86H174.33V127.79L172.7 124.84C172.91 124.75 173.11 124.65 173.27 124.52L173.29 124.54ZM170.05 121.87H171.3C171.57 121.87 171.8 121.91 171.98 122C172.16 122.09 172.3 122.22 172.39 122.38C172.48 122.55 172.52 122.75 172.52 122.98C172.52 123.2 172.47 123.39 172.38 123.55C172.29 123.71 172.15 123.84 171.98 123.93C171.8 124.02 171.58 124.07 171.31 124.07H170.05V121.87Z" fill="#040000"/>
<path d="M179.7 123.17C179.49 122.94 179.24 122.76 178.93 122.64C178.62 122.52 178.27 122.45 177.88 122.45C177.49 122.45 177.11 122.52 176.79 122.65C176.47 122.78 176.19 122.97 175.97 123.22C175.75 123.47 175.57 123.76 175.45 124.09C175.33 124.42 175.27 124.79 175.27 125.2V125.4C175.27 125.75 175.33 126.09 175.46 126.4C175.59 126.71 175.77 126.99 176.01 127.22C176.25 127.45 176.54 127.64 176.88 127.77C177.22 127.9 177.61 127.97 178.04 127.97C178.4 127.97 178.72 127.92 179 127.83C179.28 127.74 179.52 127.62 179.72 127.47C179.92 127.32 180.08 127.17 180.2 127.01L179.48 126.26C179.31 126.46 179.11 126.62 178.88 126.71C178.65 126.81 178.4 126.86 178.13 126.86C177.91 126.86 177.72 126.82 177.55 126.75C177.38 126.68 177.24 126.58 177.12 126.45C177 126.32 176.91 126.16 176.85 125.98C176.81 125.88 176.81 125.76 176.8 125.65H180.33V125.06C180.33 124.67 180.28 124.31 180.17 123.99C180.06 123.67 179.91 123.4 179.7 123.17ZM178.87 124.71H176.8C176.8 124.66 176.8 124.6 176.82 124.55C176.86 124.35 176.93 124.18 177.02 124.03C177.11 123.88 177.22 123.77 177.36 123.69C177.5 123.61 177.67 123.57 177.86 123.57C178.09 123.57 178.28 123.62 178.43 123.71C178.58 123.8 178.69 123.93 178.76 124.08C178.83 124.24 178.87 124.41 178.87 124.61V124.72V124.71Z" fill="#040000"/>
<path d="M184.92 125C184.6 124.87 184.25 124.77 183.84 124.69C183.64 124.65 183.48 124.61 183.35 124.57C183.22 124.53 183.11 124.48 183.03 124.42C182.95 124.36 182.89 124.31 182.85 124.25C182.81 124.19 182.8 124.11 182.8 124.03C182.8 123.92 182.83 123.82 182.9 123.73C182.96 123.64 183.06 123.57 183.18 123.51C183.3 123.46 183.44 123.43 183.61 123.43C183.81 123.43 183.97 123.46 184.1 123.53C184.22 123.59 184.32 123.68 184.38 123.79C184.44 123.9 184.47 124.02 184.47 124.16H185.95C185.95 123.83 185.86 123.54 185.67 123.28C185.48 123.02 185.22 122.82 184.87 122.67C184.52 122.52 184.1 122.45 183.62 122.45C183.27 122.45 182.96 122.49 182.69 122.58C182.42 122.67 182.18 122.79 181.99 122.94C181.8 123.09 181.65 123.27 181.55 123.46C181.45 123.65 181.4 123.87 181.4 124.09C181.4 124.31 181.45 124.52 181.55 124.69C181.65 124.87 181.79 125.02 181.96 125.14C182.14 125.27 182.35 125.38 182.59 125.47C182.83 125.56 183.09 125.63 183.38 125.69C183.69 125.75 183.93 125.81 184.1 125.88C184.27 125.95 184.38 126.03 184.44 126.11C184.5 126.19 184.53 126.28 184.53 126.39C184.53 126.5 184.5 126.61 184.43 126.69C184.36 126.78 184.27 126.85 184.14 126.9C184.01 126.95 183.85 126.98 183.66 126.98C183.48 126.98 183.32 126.95 183.16 126.9C183.01 126.85 182.88 126.76 182.78 126.64C182.68 126.52 182.63 126.37 182.62 126.17H181.21C181.21 126.46 181.3 126.74 181.49 127.01C181.67 127.28 181.94 127.51 182.3 127.69C182.66 127.87 183.1 127.96 183.62 127.96C183.98 127.96 184.3 127.92 184.59 127.84C184.88 127.76 185.12 127.65 185.33 127.5C185.54 127.35 185.69 127.18 185.8 126.99C185.91 126.8 185.96 126.58 185.96 126.34C185.96 125.99 185.87 125.71 185.68 125.5C185.49 125.28 185.24 125.11 184.93 124.99L184.92 125Z" fill="#040000"/>
<path d="M189.83 126.83C189.76 126.83 189.67 126.84 189.58 126.84C189.45 126.84 189.34 126.82 189.26 126.79C189.17 126.76 189.11 126.7 189.07 126.62C189.03 126.54 189.01 126.42 189.01 126.27V123.55H189.97V122.55H189.01V121.24H187.53V122.55H186.73V123.55H187.53V126.41C187.53 126.78 187.6 127.09 187.73 127.32C187.86 127.55 188.05 127.72 188.29 127.82C188.53 127.92 188.82 127.97 189.14 127.97C189.32 127.97 189.48 127.96 189.63 127.94C189.78 127.92 189.91 127.89 190.04 127.85V126.81C189.98 126.81 189.92 126.83 189.85 126.84L189.83 126.83Z" fill="#040000"/>
<path d="M195.32 123.23C195.09 122.99 194.82 122.8 194.49 122.66C194.16 122.52 193.78 122.46 193.36 122.46C192.94 122.46 192.56 122.53 192.24 122.66C191.91 122.8 191.64 122.99 191.42 123.23C191.2 123.47 191.03 123.76 190.91 124.09C190.79 124.42 190.73 124.78 190.73 125.17V125.27C190.73 125.66 190.79 126.02 190.91 126.35C191.03 126.68 191.2 126.97 191.42 127.21C191.64 127.45 191.92 127.64 192.25 127.78C192.58 127.91 192.95 127.98 193.38 127.98C193.81 127.98 194.18 127.91 194.5 127.78C194.83 127.65 195.1 127.46 195.33 127.21C195.55 126.97 195.73 126.68 195.84 126.35C195.96 126.02 196.02 125.66 196.02 125.27V125.17C196.02 124.78 195.96 124.42 195.84 124.09C195.72 123.76 195.55 123.47 195.33 123.23H195.32ZM194.52 125.27C194.52 125.49 194.5 125.7 194.46 125.89C194.42 126.08 194.35 126.25 194.26 126.4C194.17 126.55 194.05 126.66 193.9 126.74C193.75 126.82 193.58 126.86 193.37 126.86C193.16 126.86 192.98 126.82 192.83 126.74C192.68 126.66 192.56 126.54 192.47 126.4C192.38 126.26 192.31 126.08 192.27 125.89C192.23 125.7 192.21 125.49 192.21 125.27V125.17C192.21 124.95 192.23 124.75 192.27 124.56C192.31 124.37 192.38 124.2 192.47 124.05C192.56 123.9 192.68 123.78 192.82 123.7C192.96 123.62 193.14 123.57 193.35 123.57C193.56 123.57 193.74 123.61 193.89 123.7C194.04 123.79 194.16 123.9 194.25 124.05C194.34 124.2 194.41 124.37 194.45 124.56C194.49 124.75 194.51 124.96 194.51 125.17V125.27H194.52Z" fill="#040000"/>
<path d="M199.94 122.46C199.68 122.46 199.45 122.52 199.25 122.64C199.05 122.76 198.88 122.93 198.74 123.14C198.72 123.17 198.71 123.2 198.7 123.23L198.65 122.56H197.25V127.88H198.73V124.4C198.78 124.29 198.84 124.18 198.92 124.09C199.02 123.99 199.15 123.92 199.3 123.87C199.45 123.82 199.63 123.79 199.84 123.79C199.92 123.79 200.01 123.79 200.12 123.8C200.23 123.81 200.31 123.82 200.38 123.83L200.41 122.52C200.36 122.5 200.28 122.48 200.2 122.47C200.11 122.46 200.03 122.45 199.95 122.45L199.94 122.46Z" fill="#040000"/>
<path d="M205.75 126.59V124.31C205.75 123.9 205.65 123.55 205.46 123.28C205.27 123 205 122.8 204.67 122.66C204.33 122.52 203.95 122.45 203.52 122.45C203.16 122.45 202.83 122.49 202.54 122.58C202.25 122.67 202 122.79 201.79 122.95C201.58 123.11 201.42 123.29 201.31 123.49C201.2 123.69 201.15 123.91 201.15 124.13H202.63C202.63 124 202.66 123.88 202.73 123.78C202.8 123.68 202.89 123.6 203.01 123.55C203.13 123.5 203.27 123.47 203.44 123.47C203.63 123.47 203.79 123.51 203.91 123.57C204.03 123.63 204.12 123.73 204.18 123.86C204.24 123.98 204.27 124.13 204.27 124.3V124.63H203.61C203.18 124.63 202.81 124.67 202.49 124.75C202.17 124.83 201.9 124.94 201.68 125.09C201.46 125.24 201.3 125.42 201.19 125.64C201.08 125.86 201.03 126.1 201.03 126.38C201.03 126.69 201.11 126.96 201.28 127.2C201.45 127.44 201.67 127.63 201.96 127.77C202.25 127.91 202.57 127.97 202.92 127.97C203.2 127.97 203.44 127.93 203.64 127.85C203.84 127.77 204.02 127.67 204.16 127.54C204.23 127.48 204.27 127.41 204.33 127.35C204.37 127.56 204.42 127.74 204.49 127.88H205.99V127.8C205.92 127.66 205.86 127.5 205.83 127.32C205.8 127.14 205.77 126.9 205.77 126.6L205.75 126.59ZM203.8 126.79C203.64 126.88 203.44 126.92 203.22 126.92C203.07 126.92 202.94 126.89 202.83 126.84C202.72 126.79 202.64 126.71 202.58 126.61C202.52 126.51 202.49 126.4 202.49 126.28C202.49 126.16 202.51 126.05 202.55 125.95C202.59 125.85 202.66 125.76 202.75 125.68C202.84 125.6 202.96 125.54 203.1 125.5C203.24 125.46 203.41 125.44 203.61 125.44H204.23V126.37C204.23 126.37 204.19 126.44 204.17 126.48C204.08 126.6 203.95 126.71 203.79 126.79H203.8Z" fill="#040000"/>
<path d="M209.81 126.83C209.74 126.83 209.65 126.84 209.56 126.84C209.43 126.84 209.32 126.82 209.24 126.79C209.15 126.76 209.09 126.7 209.05 126.62C209.01 126.54 208.99 126.42 208.99 126.27V123.55H209.95V122.55H208.99V121.24H207.51V122.55H206.71V123.55H207.51V126.41C207.51 126.78 207.58 127.09 207.71 127.32C207.84 127.55 208.03 127.72 208.27 127.82C208.51 127.92 208.8 127.97 209.12 127.97C209.3 127.97 209.46 127.96 209.61 127.94C209.76 127.92 209.89 127.89 210.02 127.85V126.81C209.96 126.81 209.9 126.83 209.83 126.84L209.81 126.83Z" fill="#040000"/>
<path d="M212.66 122.55H211.17V127.87H212.66V122.55Z" fill="#040000"/>
<path d="M211.91 120.45C211.66 120.45 211.45 120.52 211.3 120.65C211.15 120.78 211.07 120.96 211.07 121.16C211.07 121.36 211.15 121.54 211.3 121.67C211.45 121.8 211.65 121.87 211.91 121.87C212.17 121.87 212.36 121.8 212.52 121.67C212.67 121.54 212.75 121.37 212.75 121.16C212.75 120.95 212.67 120.78 212.52 120.65C212.37 120.52 212.17 120.45 211.91 120.45Z" fill="#040000"/>
<path d="M218.55 123.23C218.32 122.99 218.05 122.8 217.72 122.66C217.39 122.52 217.01 122.46 216.59 122.46C216.17 122.46 215.79 122.53 215.47 122.66C215.14 122.8 214.87 122.99 214.65 123.23C214.43 123.47 214.26 123.76 214.14 124.09C214.02 124.42 213.96 124.78 213.96 125.17V125.27C213.96 125.66 214.02 126.02 214.14 126.35C214.26 126.68 214.43 126.97 214.65 127.21C214.87 127.45 215.15 127.64 215.48 127.78C215.81 127.91 216.18 127.98 216.61 127.98C217.04 127.98 217.41 127.91 217.73 127.78C218.06 127.65 218.33 127.46 218.56 127.21C218.78 126.97 218.96 126.68 219.07 126.35C219.19 126.02 219.25 125.66 219.25 125.27V125.17C219.25 124.78 219.19 124.42 219.07 124.09C218.95 123.76 218.78 123.47 218.56 123.23H218.55ZM217.75 125.27C217.75 125.49 217.73 125.7 217.69 125.89C217.65 126.08 217.58 126.25 217.49 126.4C217.4 126.55 217.28 126.66 217.13 126.74C216.98 126.82 216.81 126.86 216.6 126.86C216.39 126.86 216.21 126.82 216.06 126.74C215.91 126.66 215.79 126.54 215.7 126.4C215.61 126.26 215.54 126.08 215.5 125.89C215.46 125.7 215.44 125.49 215.44 125.27V125.17C215.44 124.95 215.46 124.75 215.5 124.56C215.54 124.37 215.61 124.2 215.7 124.05C215.79 123.9 215.91 123.78 216.05 123.7C216.19 123.62 216.37 123.57 216.58 123.57C216.79 123.57 216.97 123.61 217.12 123.7C217.27 123.79 217.39 123.9 217.48 124.05C217.57 124.2 217.64 124.37 217.68 124.56C217.72 124.75 217.74 124.96 217.74 125.17V125.27H217.75Z" fill="#040000"/>
<path d="M224.76 122.91C224.6 122.75 224.42 122.64 224.2 122.57C223.98 122.5 223.75 122.46 223.48 122.46C223.15 122.46 222.85 122.52 222.59 122.64C222.32 122.76 222.1 122.93 221.9 123.16C221.89 123.17 221.88 123.19 221.87 123.2L221.82 122.56H220.43V127.88H221.91V124.15C221.91 124.15 221.95 124.04 221.98 124C222.07 123.87 222.19 123.76 222.34 123.69C222.49 123.62 222.66 123.58 222.86 123.58C223.06 123.58 223.21 123.61 223.35 123.66C223.48 123.71 223.58 123.81 223.65 123.94C223.72 124.07 223.75 124.25 223.75 124.49V127.89H225.24V124.5C225.24 124.13 225.2 123.81 225.11 123.55C225.03 123.29 224.91 123.08 224.75 122.92L224.76 122.91Z" fill="#040000"/>
<path d="M231.07 123.35C231.16 122.88 231.29 122.47 231.44 122.12C231.59 121.77 231.76 121.48 231.95 121.23C232.14 120.99 232.33 120.8 232.53 120.66L232.25 119.91C231.96 120.03 231.66 120.24 231.36 120.52C231.06 120.8 230.79 121.16 230.53 121.59C230.28 122.02 230.08 122.51 229.92 123.08C229.77 123.64 229.69 124.27 229.69 124.96V125.07C229.69 125.76 229.77 126.39 229.92 126.96C230.07 127.53 230.28 128.02 230.53 128.45C230.78 128.88 231.06 129.23 231.36 129.51C231.66 129.79 231.96 129.99 232.25 130.12L232.53 129.39C232.33 129.25 232.14 129.06 231.95 128.81C231.76 128.57 231.59 128.27 231.44 127.92C231.29 127.57 231.16 127.16 231.07 126.68C230.98 126.21 230.93 125.67 230.93 125.07V124.94C230.93 124.34 230.98 123.8 231.07 123.33V123.35Z" fill="#040000"/>
<path d="M236.92 120.71H235.88L233.09 127.87H234.73L235.25 126.36H237.94L238.46 127.87H240.11L237.31 120.71H236.92ZM235.65 125.21L236.6 122.45L237.55 125.21H235.65Z" fill="#040000"/>
<path d="M242.3 120.71H240.03V121.87H242.3V127.88H243.84V121.87H246.15V120.71H243.84H242.3Z" fill="#040000"/>
<path d="M248.46 120.71H247.34V127.88H248.88V124.93H251.87V123.77H248.88V121.87H252.23V120.71H248.88H248.46Z" fill="#040000"/>
<path d="M258.23 124.54C258.48 124.36 258.67 124.13 258.8 123.86C258.94 123.59 259 123.26 259 122.87C259 122.4 258.89 122.01 258.66 121.68C258.43 121.35 258.12 121.12 257.71 120.95C257.3 120.78 256.8 120.7 256.23 120.7H253.43V127.86H254.97V125.21H256.2L257.62 127.86H259.27V127.79L257.64 124.84C257.85 124.75 258.05 124.65 258.21 124.52L258.23 124.54ZM254.99 121.87H256.24C256.51 121.87 256.74 121.91 256.93 122C257.11 122.09 257.25 122.22 257.34 122.38C257.43 122.55 257.47 122.75 257.47 122.98C257.47 123.2 257.42 123.39 257.33 123.55C257.24 123.71 257.1 123.84 256.93 123.93C256.75 124.02 256.53 124.07 256.26 124.07H255V121.87H254.99Z" fill="#040000"/>
<path d="M262.73 123.12C262.57 122.56 262.36 122.06 262.1 121.63C261.84 121.2 261.56 120.84 261.25 120.55C260.94 120.26 260.64 120.05 260.33 119.93L260.04 120.66C260.23 120.8 260.42 120.99 260.6 121.23C260.79 121.47 260.96 121.77 261.11 122.12C261.27 122.47 261.39 122.89 261.48 123.36C261.57 123.83 261.62 124.37 261.62 124.97V125.1C261.62 125.7 261.57 126.24 261.48 126.71C261.39 127.18 261.27 127.6 261.11 127.95C260.96 128.3 260.79 128.6 260.6 128.84C260.41 129.08 260.22 129.27 260.03 129.41L260.32 130.14C260.63 130.02 260.93 129.81 261.24 129.52C261.55 129.23 261.83 128.87 262.09 128.44C262.35 128 262.56 127.51 262.72 126.94C262.88 126.37 262.96 125.76 262.96 125.09V124.98C262.96 124.31 262.88 123.69 262.72 123.13L262.73 123.12Z" fill="#040000"/>
<path d="M22.6899 93.81V98.28H42.4299V93.81H22.6899ZM38.9299 96.55H25.9899V95.52H38.9299V96.55Z" fill="#040000"/>
<path d="M34.1599 109.98H42.9899V107.92H41.1899L43.1699 106.33C42.7099 105.96 42.1499 105.55 41.4899 105.09C40.9599 104.73 40.4099 104.38 39.8299 104.03H41.9699V102.15H22.7099V101.33H42.0599V103.54H45.4399V99.13H19.4699V103.54H22.6399V104.04H26.7099C26.3499 104.21 26.0099 104.37 25.6999 104.5C25.2399 104.69 24.8999 104.83 24.6799 104.93C24.0999 105.11 23.5699 105.22 23.0899 105.28C23.2299 105.57 23.3699 105.96 23.5099 106.43C23.6499 106.9 23.7599 107.25 23.8399 107.49C24.0199 107.45 24.2599 107.41 24.5699 107.36C24.8799 107.31 25.3399 107.27 25.9599 107.23C26.5799 107.19 27.4599 107.16 28.6099 107.13C29.1599 107.12 29.7999 107.1 30.5099 107.08V107.94H22.2999V110H30.5099V110.97H19.3699V113.32H45.5999V110.97H34.1299V110L34.1599 109.98ZM28.5299 105.17C29.2199 104.83 29.9099 104.45 30.5799 104.04H35.3399L35.1799 104.16C35.7099 104.42 36.2599 104.72 36.8199 105.05L28.5199 105.17H28.5299ZM34.1599 106.97C35.6899 106.93 37.4899 106.89 39.5499 106.85C40.0799 107.24 40.5299 107.6 40.9099 107.93H34.1599V106.98V106.97Z" fill="#040000"/>
<path d="M34.1599 86.25H30.5399V87.75H19.1899V89.96H30.5399V90.9H21.5899V92.96H43.3599V90.9H34.1599V89.96H45.8099V87.75H34.1599V86.25Z" fill="#040000"/>
<path d="M69.0799 94.1H63.3599V95.72H69.0799V94.1Z" fill="#040000"/>
<path d="M52.2399 105.79C51.7899 106.96 51.3499 108.05 50.9099 109.08C50.4699 110.11 50.0599 111.02 49.6799 111.8L52.9099 113.56C53.3099 112.6 53.6999 111.59 54.0899 110.53C54.4799 109.47 54.8599 108.4 55.2399 107.31C55.6199 106.22 55.9699 105.16 56.2899 104.12L53.4499 102.3C53.0899 103.46 52.6899 104.62 52.2399 105.78V105.79Z" fill="#040000"/>
<path d="M52.19 98.85C52.69 99.21 53.08 99.55 53.36 99.86L55.46 97.15C55.14 96.86 54.73 96.54 54.22 96.21C53.71 95.88 53.18 95.55 52.62 95.22C52.06 94.9 51.52 94.62 51 94.38L49.02 96.82C49.54 97.07 50.07 97.38 50.62 97.75C51.17 98.11 51.69 98.48 52.19 98.84V98.85Z" fill="#040000"/>
<path d="M52.7599 91.21C53.2399 91.59 53.6199 91.95 53.8999 92.28L56.0599 89.63C55.7599 89.32 55.3699 88.98 54.8799 88.62C54.3899 88.26 53.8699 87.9 53.3099 87.56C52.7499 87.22 52.2099 86.92 51.6899 86.66L49.6499 89.04C50.1499 89.33 50.6699 89.67 51.2199 90.05C51.7699 90.43 52.2799 90.81 52.7599 91.2V91.21Z" fill="#040000"/>
<path d="M69.68 89.22H66.64L67.85 88.93C67.73 88.64 67.57 88.26 67.36 87.81C67.15 87.36 66.95 86.97 66.75 86.63L64.44 87.1C64.62 87.47 64.8 87.88 64.99 88.34C65.13 88.67 65.23 88.96 65.33 89.22H62.49V91.04H69.68V89.22Z" fill="#040000"/>
<path d="M60.3999 97.25C60.5999 97.76 60.7699 98.31 60.9199 98.9C61.0699 99.49 61.1699 99.99 61.2299 100.4L62.7299 99.78C62.6899 99.37 62.5799 98.88 62.3999 98.31C62.2199 97.74 62.0199 97.22 61.7999 96.75L60.3899 97.25H60.3999Z" fill="#040000"/>
<path d="M69.0799 91.81H63.3599V93.43H69.0799V91.81Z" fill="#040000"/>
<path d="M58.0601 97.69C58.2201 98.24 58.3401 98.83 58.4301 99.47C58.5201 100.11 58.5701 100.65 58.5901 101.1L60.2401 100.57C60.2201 100.14 60.1501 99.61 60.0501 99C59.9501 98.39 59.8001 97.81 59.6201 97.28L58.0601 97.69Z" fill="#040000"/>
<path d="M75.82 92.81L74.38 93.31C74.51 93.55 74.64 93.8 74.76 94.06L73.04 94.25C73.41 93.85 73.79 93.43 74.15 92.98C74.98 91.96 75.69 90.94 76.29 89.92L74.4 89.1C74.2 89.55 73.96 89.99 73.7 90.43L72.32 90.49C72.52 90.22 72.73 89.95 72.93 89.65C73.47 88.85 73.9 88.05 74.22 87.27L72.27 86.56C72.13 87.09 71.94 87.62 71.69 88.15C71.44 88.68 71.2 89.14 70.97 89.53C70.74 89.92 70.57 90.19 70.45 90.32C70.29 90.54 70.14 90.72 69.99 90.86C69.84 91.01 69.69 91.09 69.53 91.11C69.65 91.31 69.78 91.56 69.92 91.86C70.06 92.16 70.15 92.38 70.19 92.52C70.35 92.46 70.56 92.41 70.82 92.37C71.08 92.33 71.48 92.28 72.03 92.22C72.19 92.2 72.37 92.19 72.57 92.17C72.37 92.45 72.17 92.72 71.97 92.96C71.56 93.47 71.26 93.82 71.06 94.02C70.8 94.31 70.56 94.55 70.34 94.73C70.12 94.91 69.88 95.01 69.62 95.05C69.76 95.25 69.9 95.5 70.05 95.81C70.2 96.12 70.29 96.35 70.33 96.49C70.51 96.41 70.76 96.34 71.09 96.27C71.42 96.2 71.97 96.11 72.75 95.99C73.39 95.89 74.28 95.76 75.39 95.6C75.51 95.95 75.62 96.28 75.68 96.55L77.18 95.93C77.08 95.52 76.9 95.01 76.64 94.4C76.38 93.79 76.1 93.25 75.8 92.78L75.82 92.81Z" fill="#040000"/>
<path d="M55.3101 91.14C55.4301 91.34 55.5601 91.59 55.7001 91.89C55.8401 92.19 55.9401 92.41 56.0001 92.55C56.1401 92.49 56.3401 92.44 56.6101 92.39C56.8801 92.34 57.2901 92.29 57.8401 92.23C58.0001 92.21 58.1901 92.2 58.4001 92.18C58.1901 92.47 57.9801 92.74 57.7801 92.99C57.3701 93.5 57.0701 93.85 56.8701 94.05C56.6101 94.32 56.3701 94.55 56.1501 94.74C55.9301 94.93 55.6901 95.04 55.4301 95.08C55.5501 95.28 55.6801 95.53 55.8301 95.83C55.9801 96.13 56.0701 96.36 56.1101 96.52C56.2901 96.44 56.5501 96.36 56.8901 96.28C57.2301 96.2 57.7801 96.1 58.5501 95.97C59.1801 95.86 60.0801 95.74 61.2001 95.6C61.3101 95.93 61.4101 96.25 61.4701 96.51L62.9701 95.86C62.8701 95.45 62.7001 94.95 62.4501 94.38C62.2001 93.8 61.9401 93.27 61.6601 92.78L60.1901 93.31C60.3201 93.55 60.4501 93.8 60.5801 94.06L58.8501 94.24C59.2201 93.84 59.5901 93.42 59.9601 92.97C60.7801 91.96 61.4901 90.95 62.0901 89.93L60.2601 89.11C60.0501 89.55 59.8101 89.98 59.5601 90.41L58.1301 90.47C58.3301 90.2 58.5301 89.93 58.7301 89.63C59.2701 88.83 59.7101 88.03 60.0501 87.25L58.1001 86.57C57.9601 87.08 57.7701 87.6 57.5201 88.13C57.2701 88.66 57.0301 89.13 56.8001 89.53C56.5701 89.93 56.4001 90.19 56.2801 90.31C56.1201 90.55 55.9701 90.73 55.8301 90.87C55.6901 91.01 55.5201 91.1 55.3201 91.13L55.3101 91.14Z" fill="#040000"/>
<path d="M63.3298 100.93H69.0798V96.52H63.3298V100.93ZM65.4298 98.07H66.9298V99.36H65.4298V98.07Z" fill="#040000"/>
<path d="M71.45 99.74C71.67 99.02 71.83 98.32 71.93 97.64L70.22 97.2C70.12 97.77 70 98.35 69.86 98.93C69.72 99.52 69.51 100.05 69.23 100.52C69.43 100.64 69.68 100.8 69.99 101.02C70.3 101.24 70.53 101.42 70.69 101.58C70.97 101.07 71.22 100.46 71.44 99.74H71.45Z" fill="#040000"/>
<path d="M57.73 97.72L55.99 97.28C55.91 97.87 55.8 98.45 55.65 99.03C55.5 99.61 55.29 100.13 55.01 100.6C55.23 100.72 55.49 100.88 55.79 101.1C56.09 101.32 56.33 101.5 56.51 101.66C56.79 101.17 57.03 100.57 57.24 99.85C57.45 99.13 57.61 98.42 57.73 97.72Z" fill="#040000"/>
<path d="M72.83 107.54H61.13C61.15 107.45 61.17 107.38 61.2 107.29C61.26 107.05 61.3099 106.83 61.3699 106.6H74.75V101.69H57.65V103.69H71.43V104.63H58.5499C58.3699 105.45 58.1599 106.32 57.9199 107.23C57.6799 108.14 57.44 108.96 57.2 109.69H72.41C72.36 109.86 72.3 110.02 72.25 110.16C72.04 110.69 71.82 111.04 71.58 111.22C71.42 111.32 71.24 111.38 71.04 111.41C70.84 111.44 70.59 111.45 70.29 111.45C69.91 111.45 69.2899 111.44 68.4199 111.41C67.5499 111.38 66.6699 111.33 65.7699 111.25C66.0299 111.62 66.24 112.05 66.41 112.53C66.58 113.01 66.67 113.45 66.69 113.84C67.63 113.86 68.53 113.88 69.3899 113.9C70.2499 113.92 70.92 113.92 71.4 113.9C72 113.86 72.5199 113.79 72.9599 113.69C73.4 113.59 73.81 113.41 74.19 113.13C74.61 112.8 74.9599 112.29 75.2399 111.6C75.5199 110.91 75.7799 109.97 76.0199 108.78C76.0999 108.58 76.1599 108.17 76.1999 107.55H72.8499L72.83 107.54Z" fill="#040000"/>
<path d="M74.41 100.9C74.39 100.45 74.32 99.89 74.19 99.21C74.06 98.53 73.91 97.9 73.73 97.31L72.2 97.72C72.36 98.31 72.49 98.96 72.6 99.66C72.71 100.36 72.76 100.95 72.76 101.42L74.41 100.89V100.9Z" fill="#040000"/>
<path d="M76.0001 96.75L74.5601 97.28C74.8201 97.87 75.0401 98.51 75.2201 99.21C75.4001 99.91 75.5201 100.5 75.5801 100.99L77.0801 100.34C77.0201 99.85 76.8901 99.27 76.6901 98.61C76.4901 97.94 76.2601 97.33 76.0001 96.76V96.75Z" fill="#040000"/>
<path d="M102.72 108.13H96.01V86.52H92.23V108.13H85.68V92.66H81.96V111.78H102.72V113.87H106.46V92.55H102.72V108.13Z" fill="#040000"/>
<path d="M123.65 100.49C123.35 100.16 123.01 99.77 122.63 99.34C122.25 98.91 121.87 98.48 121.49 98.06C121.11 97.64 120.76 97.26 120.44 96.91C120.13 96.58 119.9 96.35 119.72 96.19V95.72H123.67V92.4H119.72V86.25H116.22V92.4H111.46V95.72H115.71C115.54 96.31 115.35 96.91 115.13 97.51C114.76 98.51 114.34 99.5 113.86 100.48C113.38 101.46 112.87 102.38 112.33 103.23C111.79 104.08 111.22 104.83 110.62 105.48C110.9 105.95 111.23 106.51 111.61 107.17C111.99 107.83 112.26 108.41 112.42 108.92C113.08 108.16 113.7 107.25 114.29 106.21C114.88 105.17 115.42 104.04 115.92 102.83C116.02 102.58 116.12 102.32 116.22 102.06V113.86H119.72V100.62C119.81 100.75 119.9 100.87 119.99 101C120.41 101.6 120.8 102.19 121.16 102.76C121.52 103.34 121.82 103.85 122.06 104.3L124.31 101.24C124.17 101.06 123.95 100.81 123.65 100.48V100.49Z" fill="#040000"/>
<path d="M134.94 98.59C134.55 97.63 134.22 96.68 133.91 95.72H138.47V92.4H133.17V86.25H129.55V92.4H124.61V95.72H128.98C128.78 96.31 128.56 96.89 128.32 97.48C127.84 98.66 127.29 99.8 126.66 100.91C126.03 102.02 125.35 103.06 124.62 104.03C123.89 105 123.13 105.85 122.33 106.57C122.67 107 123.04 107.52 123.45 108.13C123.86 108.74 124.16 109.3 124.36 109.81C125.22 108.99 126.03 108.01 126.79 106.87C127.55 105.73 128.26 104.5 128.93 103.18C129.15 102.75 129.34 102.31 129.54 101.88V113.87H133.16V101.94C133.56 103.01 133.97 104.05 134.42 105.04C135.14 106.62 135.9 107.97 136.7 109.08C137.02 108.61 137.44 108.11 137.97 107.59C138.5 107.07 138.97 106.65 139.39 106.34C138.57 105.4 137.78 104.26 137.01 102.91C136.24 101.57 135.55 100.13 134.93 98.59H134.94Z" fill="#040000"/>
<path d="M143.07 94.22C143.28 94.59 143.44 94.92 143.56 95.19C144.46 94.58 145.36 93.87 146.26 93.04C147.16 92.22 148.02 91.34 148.84 90.41C149.66 89.48 150.38 88.55 151 87.63L147.56 86.34C147.18 86.99 146.68 87.67 146.05 88.4C145.42 89.13 144.73 89.82 143.98 90.47C143.23 91.13 142.5 91.7 141.78 92.19C141.96 92.43 142.17 92.73 142.41 93.1C142.65 93.47 142.87 93.85 143.08 94.22H143.07Z" fill="#040000"/>
<path d="M165.44 108.13C166.59 107.07 167.52 105.84 168.24 104.42L166.02 103.3L165.42 103.42H159.39C159.66 103.04 159.92 102.65 160.15 102.24H167.75V93.01H155.22C155.51 92.62 155.79 92.22 156.07 91.79C156.07 91.79 156.07 91.79 156.07 91.78H169.42V88.99H157.63C157.92 88.37 158.2 87.75 158.43 87.11L155.11 86.29C154.63 87.68 153.96 89.02 153.1 90.3C152.24 91.58 151.28 92.65 150.22 93.49C150.38 93.58 150.58 93.7 150.78 93.83L148.21 92.78C147.67 93.74 147.02 94.7 146.26 95.65C145.5 96.6 144.7 97.49 143.86 98.31C143.02 99.13 142.18 99.86 141.34 100.49C141.54 100.76 141.75 101.14 141.98 101.62C142.21 102.1 142.43 102.57 142.64 103.03C142.85 103.49 142.99 103.86 143.07 104.13C143.83 103.51 144.58 102.78 145.35 102V113.89H149V97.7C149.87 96.52 150.64 95.35 151.29 94.19C151.59 94.41 151.89 94.62 152.17 94.85C152.51 95.11 152.78 95.35 152.98 95.54C153.26 95.27 153.54 94.99 153.82 94.68V102.24H156.46C155.97 102.9 155.39 103.52 154.72 104.11C154.26 103.62 153.83 103.12 153.46 102.59L150.85 103.5C151.35 104.3 151.91 105.05 152.52 105.76C151.76 106.25 150.96 106.69 150.13 107.06C150.37 107.22 150.64 107.44 150.94 107.72C151.24 108 151.54 108.28 151.84 108.56C152.14 108.83 152.38 109.08 152.56 109.3C153.28 108.91 154 108.46 154.7 107.96C154.84 108.08 154.96 108.2 155.1 108.31C155.65 108.76 156.23 109.17 156.83 109.57C156.14 109.81 155.43 110.02 154.7 110.21C153.17 110.6 151.58 110.91 149.92 111.12C150.12 111.36 150.33 111.65 150.55 112C150.77 112.35 150.97 112.72 151.15 113.09C151.33 113.46 151.47 113.79 151.57 114.06C153.37 113.75 155.1 113.33 156.78 112.81C158 112.43 159.14 111.96 160.24 111.45C160.44 111.54 160.62 111.64 160.82 111.72C162.96 112.63 165.29 113.32 167.83 113.79C168.01 113.48 168.22 113.13 168.46 112.75C168.7 112.37 168.95 111.99 169.22 111.62C169.49 111.25 169.75 110.93 170.01 110.68C167.81 110.41 165.76 109.96 163.85 109.37C164.39 108.98 164.9 108.56 165.38 108.12L165.44 108.13ZM157.04 95.34H164.44V96.55H157.04V95.34ZM157.04 98.72H164.44V99.93H157.04V98.72ZM157.15 105.98H163.2C162.97 106.2 162.73 106.42 162.48 106.63C161.85 107.14 161.15 107.61 160.38 108.04C159.33 107.55 158.34 107 157.45 106.4C157.31 106.3 157.18 106.2 157.04 106.1C157.08 106.06 157.11 106.03 157.15 105.99V105.98Z" fill="#040000"/>
<path d="M188.97 87.28L185.35 85.9C184.73 86.7 184.06 87.48 183.34 88.22C183.14 88.42 182.95 88.61 182.76 88.81H173.34V91.87H179.4C179.4 91.87 179.35 91.91 179.33 91.93C178.77 92.38 178.34 92.71 178.04 92.93C177.48 93.32 177 93.64 176.59 93.89C176.18 94.14 175.77 94.31 175.35 94.4C175.49 94.69 175.63 95.05 175.77 95.47C175.91 95.89 176.04 96.3 176.17 96.69C176.3 97.08 176.38 97.39 176.42 97.6C176.68 97.52 177.01 97.45 177.41 97.39C177.81 97.33 178.39 97.27 179.15 97.21C179.91 97.15 180.96 97.1 182.29 97.05C183.63 97 185.37 96.93 187.52 96.84C189.36 96.76 191.61 96.67 194.2 96.56C194.81 97.15 195.3 97.68 195.68 98.15H176.7V102.8C176.7 103.74 176.64 104.76 176.52 105.86C176.4 106.96 176.15 108.05 175.77 109.14C175.39 110.23 174.78 111.23 173.94 112.15C174.24 112.27 174.58 112.45 174.96 112.71C175.34 112.96 175.71 113.23 176.08 113.5C176.45 113.77 176.72 114.02 176.9 114.23C177.6 113.47 178.16 112.61 178.59 111.66C179.02 110.71 179.35 109.72 179.58 108.69C179.81 107.66 179.97 106.65 180.06 105.65C180.15 104.65 180.19 103.73 180.19 102.89V101.04H193.64V105.45C192.85 105.57 192.07 105.7 191.27 105.82L192.23 103.87C191.43 103.54 190.45 103.21 189.28 102.89C188.11 102.57 186.88 102.27 185.6 102.01C184.31 101.75 183.11 101.56 181.99 101.47L180.91 103.59C182.07 103.75 183.28 103.97 184.55 104.27C185.82 104.56 187.03 104.88 188.19 105.23C189.03 105.48 189.76 105.73 190.39 105.98C190.17 106.01 189.97 106.05 189.75 106.08C187.87 106.36 186.11 106.62 184.46 106.84C182.81 107.07 181.4 107.26 180.22 107.41L181.27 110.53C182.61 110.28 184.06 109.99 185.61 109.68C187.17 109.37 188.79 109.03 190.48 108.67C191.55 108.44 192.59 108.22 193.64 107.99V110.13C193.64 110.37 193.58 110.53 193.47 110.62C193.36 110.71 193.16 110.76 192.86 110.78C192.7 110.78 192.36 110.78 191.83 110.79C191.3 110.8 190.7 110.79 190.03 110.78C189.36 110.77 188.75 110.73 188.19 110.69C188.41 111.14 188.6 111.64 188.76 112.18C188.92 112.72 189.03 113.22 189.09 113.69C190.55 113.69 191.82 113.68 192.91 113.65C194 113.62 194.9 113.51 195.62 113.31C196.32 113.09 196.81 112.76 197.1 112.3C197.39 111.84 197.53 111.14 197.53 110.2V98.2H196.24L199.03 96.49C198.55 95.94 197.93 95.33 197.17 94.65C196.41 93.97 195.61 93.31 194.76 92.65C194.42 92.39 194.09 92.14 193.76 91.9H199.99V88.84H187.47C187.97 88.33 188.48 87.84 188.97 87.31V87.28ZM191.24 93.97L181.2 94.24C182.07 93.6 182.96 92.9 183.87 92.15C183.98 92.06 184.08 91.96 184.18 91.87H190.64L189.43 92.58C190.03 93.01 190.63 93.48 191.25 93.97H191.24Z" fill="#040000"/>
<path d="M228.23 101.63H226.94C227 100.72 227.04 99.77 227.06 98.78H223.98C223.97 99.78 223.94 100.73 223.89 101.63H221.61V104.31H223.67C223.5 105.86 223.17 107.23 222.7 108.43C222.22 109.63 221.48 110.66 220.49 111.53C220.5 111.46 220.52 111.39 220.53 111.31C220.65 110.58 220.74 109.53 220.81 108.15C220.88 106.77 220.93 104.98 220.98 102.78C221 102.58 221.01 102.2 221.01 101.63H216.98C217.03 100.75 217.07 99.84 217.09 98.9H215C216.56 98.3 217.86 97.6 218.88 96.8C219.92 95.99 220.75 95.07 221.37 94.04C221.74 93.42 222.05 92.74 222.31 92.03H226.77C226.7 92.71 226.62 93.26 226.53 93.69C226.36 94.54 226.17 95.08 225.95 95.29C225.81 95.43 225.67 95.51 225.53 95.54C225.39 95.57 225.21 95.58 224.99 95.58C224.75 95.58 224.37 95.58 223.85 95.55C223.33 95.53 222.78 95.5 222.2 95.46C222.46 95.85 222.67 96.32 222.83 96.87C222.99 97.42 223.08 97.93 223.1 98.4C223.8 98.42 224.45 98.42 225.06 98.41C225.67 98.41 226.15 98.37 226.51 98.31C226.95 98.27 227.34 98.19 227.69 98.06C228.04 97.93 228.36 97.7 228.66 97.37C228.9 97.1 229.11 96.68 229.29 96.13C229.47 95.58 229.62 94.84 229.75 93.91C229.88 92.98 230 91.81 230.12 90.4C230.16 90.2 230.19 89.8 230.21 89.19H222.98C223.14 88.28 223.27 87.33 223.35 86.31H220C219.93 87.36 219.82 88.3 219.67 89.19H214.43V92.01H218.83C218.74 92.2 218.67 92.4 218.56 92.58C218.08 93.41 217.41 94.15 216.54 94.8C215.7 95.43 214.59 95.97 213.23 96.43V93.68H210.18V86.27H206.74V93.68H203.45V96.89H206.74V113.89H210.18V96.89H213.23V96.6C213.51 96.88 213.81 97.22 214.13 97.64C214.48 98.11 214.73 98.52 214.89 98.89H214.07C214.05 99.84 214.02 100.75 213.97 101.62H211.55V104.3H213.78C213.63 105.91 213.32 107.34 212.84 108.58C212.36 109.83 211.63 110.9 210.65 111.8C210.97 112.07 211.32 112.42 211.7 112.84C212.08 113.26 212.37 113.65 212.57 114C213.77 112.88 214.68 111.58 215.31 110.1C215.94 108.62 216.38 106.94 216.63 105.07C216.66 104.82 216.69 104.55 216.72 104.29H218.09C218.06 105.35 218.03 106.27 217.99 107.02C217.93 108.26 217.86 109.17 217.79 109.77C217.72 110.37 217.63 110.75 217.51 110.9C217.43 111.04 217.34 111.13 217.23 111.18C217.12 111.23 216.99 111.25 216.83 111.25C216.65 111.25 216.43 111.25 216.16 111.22C215.89 111.2 215.59 111.18 215.25 111.16C215.45 111.53 215.61 111.97 215.73 112.48C215.85 112.99 215.92 113.46 215.94 113.89C216.44 113.89 216.9 113.89 217.32 113.88C217.74 113.87 218.09 113.84 218.37 113.78C218.73 113.72 219.04 113.62 219.3 113.49C219.56 113.35 219.8 113.12 220.02 112.78C220.2 112.55 220.35 112.16 220.46 111.62C220.8 111.89 221.16 112.22 221.53 112.63C221.92 113.06 222.2 113.45 222.38 113.81C223.64 112.71 224.59 111.43 225.24 109.97C225.89 108.51 226.34 106.85 226.6 104.99C226.63 104.76 226.66 104.52 226.69 104.28H228.15C228.11 105.32 228.08 106.23 228.04 106.97C227.98 108.2 227.91 109.1 227.84 109.69C227.77 110.28 227.68 110.65 227.56 110.81C227.48 110.95 227.39 111.04 227.28 111.09C227.17 111.14 227.03 111.16 226.85 111.16C226.67 111.16 226.44 111.16 226.15 111.15C225.86 111.15 225.54 111.12 225.18 111.08C225.38 111.45 225.55 111.9 225.69 112.43C225.83 112.96 225.91 113.45 225.93 113.9C226.43 113.9 226.9 113.9 227.34 113.89C227.78 113.88 228.16 113.85 228.48 113.79C228.82 113.71 229.12 113.6 229.39 113.47C229.66 113.33 229.91 113.1 230.15 112.76C230.37 112.49 230.54 111.98 230.66 111.25C230.78 110.52 230.88 109.47 230.96 108.1C231.04 106.74 231.1 104.96 231.14 102.76C231.16 102.58 231.17 102.2 231.17 101.61H228.24L228.23 101.63Z" fill="#040000"/>
<path d="M259.26 92.08C258.02 91.71 256.84 91.28 255.7 90.79C254.56 90.3 253.52 89.77 252.57 89.2C251.77 88.72 251.09 88.22 250.49 87.7C250.64 87.52 250.8 87.35 250.94 87.17L247.77 86.05C246.89 87.17 245.74 88.19 244.31 89.12C242.88 90.05 241.3 90.86 239.56 91.55C237.82 92.24 236.03 92.8 234.17 93.23C234.37 93.45 234.6 93.72 234.86 94.07C235.12 94.42 235.36 94.76 235.58 95.1C235.8 95.44 235.97 95.73 236.09 95.97C236.73 95.78 237.35 95.56 237.98 95.34V102.85H258.86V95.2C259.49 95.4 260.12 95.58 260.75 95.74C260.99 95.33 261.34 94.85 261.78 94.31C262.22 93.77 262.63 93.34 262.99 93.03C261.75 92.78 260.52 92.46 259.28 92.09L259.26 92.08ZM248.63 89.56C249.1 89.98 249.59 90.39 250.13 90.78C250.46 91.03 250.81 91.25 251.15 91.49H246.01C246.32 91.29 246.64 91.11 246.94 90.9C247.55 90.47 248.1 90.02 248.63 89.56ZM252.38 100.66H249.7V96.98H251.87C251.75 97.42 251.59 97.92 251.37 98.51C251.13 99.16 250.9 99.72 250.68 100.19L252.37 100.66H252.38ZM246.8 100.66H243.76L245.67 100.1C245.59 99.67 245.44 99.16 245.22 98.57C245 97.99 244.76 97.46 244.49 96.98H246.81V100.66H246.8ZM242.66 99.28C242.83 99.8 242.94 100.26 243.01 100.66H240.95V96.98H244.34L241.99 97.6C242.23 98.11 242.45 98.67 242.65 99.28H242.66ZM255.66 100.66H253.23C253.45 100.29 253.69 99.87 253.93 99.37C254.22 98.78 254.53 98.17 254.87 97.55L252.52 96.99H255.65V100.67L255.66 100.66ZM239.49 94.78C240.26 94.48 241.02 94.18 241.77 93.84C242.23 93.63 242.65 93.39 243.09 93.17V93.78H253.69V93C254.75 93.56 255.84 94.07 256.97 94.51C257.22 94.61 257.46 94.68 257.71 94.77H239.49V94.78Z" fill="#040000"/>
<path d="M239.61 113.89H243.14V113.1H253.62V113.81H257.33V103.81H239.6V113.9L239.61 113.89ZM243.14 110.81V109.57H253.62V110.81H243.14ZM253.63 106.1V107.28H243.15V106.1H253.63Z" fill="#040000"/>
</svg>
